<?xml version="1.0" encoding="UTF-8"?>
<svg width="23px" height="15px" viewBox="0 0 23 15" version="1.1" xmlns="http://www.w3.org/2000/svg" xmlns:xlink="http://www.w3.org/1999/xlink">
    <!-- Generator: Sketch 52.5 (67469) - http://www.bohemiancoding.com/sketch -->
    <title>behance-logo</title>
    <desc>Created with Sketch.</desc>
    <g id="Page-1" stroke="none" stroke-width="1" fill="none" fill-rule="evenodd">
        <g id="Desktop-HD" transform="translate(-1609.000000, -680.000000)" fill="#303030" fill-rule="nonzero">
            <g id="behance-logo" transform="translate(1609.000000, 680.000000)">
                <path d="M20.7706496,2.0342427 L15.0076969,2.0342427 L15.0076969,0.596366719 L20.7711308,0.596366719 L20.7711308,2.0342427 L20.7706496,2.0342427 Z M11.171165,7.93050106 C11.5430166,8.50903533 11.7288355,9.21148367 11.7288355,10.036181 C11.7288355,10.8890236 11.5193281,11.6541003 11.0930943,12.3299074 C10.8219324,12.7771153 10.4852659,13.1548733 10.0807422,13.4589919 C9.6251517,13.8106995 9.08576889,14.0518673 8.46569523,14.1807229 C7.84364306,14.3097934 7.1703637,14.375 6.44510852,14.375 L0,14.375 L0,0 L6.91139365,0 C8.65349263,0.0284674738 9.88856002,0.535457068 10.6178791,1.53112039 C11.0555027,2.14177456 11.272336,2.87451659 11.272336,3.72623118 C11.272336,4.60507043 11.0528825,5.30827075 10.6109811,5.84254615 C10.3651654,6.14209917 10.0020299,6.41458123 9.52130701,6.66052946 C10.2494497,6.92828485 10.8019334,7.34992574 11.171165,7.93050106 Z M3.30046452,5.6673369 L6.32875113,5.6673369 C6.95107066,5.6673369 7.45414526,5.54852548 7.84161109,5.31101007 C8.22880955,5.07387064 8.42200774,4.65233718 8.42200774,4.04710795 C8.42200774,3.37844459 8.16619259,2.93462056 7.65333243,2.72100708 C7.21250048,2.57260023 6.64846659,2.49616775 5.96406483,2.49616775 L3.30046452,2.49616775 L3.30046452,5.6673369 Z M8.71359636,9.83083922 C8.71359636,9.08413201 8.4097624,8.56790392 7.80332437,8.29091003 C7.4641982,8.13347952 6.98572121,8.05301863 6.37222474,8.04727142 L3.30046452,8.04727142 L3.30046452,11.878134 L6.32468718,11.878134 C6.94599072,11.878134 7.426874,11.7964377 7.77391419,11.6260089 C8.39976294,11.3126518 8.71359636,10.7162851 8.71359636,9.83083922 Z M22.908877,7.49226311 C22.978499,7.96256726 23.0099946,8.64492723 22.9972145,9.53681856 L15.5335511,9.53681856 C15.5747253,10.5716381 15.9303747,11.2953028 16.6048839,11.7094239 C17.0116535,11.9691225 17.5048356,12.095937 18.0823447,12.095937 C18.691296,12.095937 19.187633,11.9412996 19.569698,11.6234307 C19.7778687,11.4549355 19.9614952,11.2170978 20.1202567,10.9170076 L22.8559387,10.9170076 C22.7842848,11.5281989 22.4548907,12.1480916 21.8629439,12.7780284 C20.9458273,13.7792778 19.6595862,14.2813259 18.0076963,14.2813259 C16.6430637,14.2813259 15.440401,13.8579125 14.3964998,13.0141473 C13.3560744,12.167428 12.8335356,10.7942215 12.8335356,8.88931781 C12.8335356,7.10301069 13.3026548,5.73576626 14.2440481,4.78409324 C15.1889172,3.83064772 16.4083169,3.35610031 17.9113913,3.35610031 C18.8023061,3.35610031 19.605418,3.51605528 20.3219036,3.83763031 C21.0361433,4.15952761 21.6264325,4.66614122 22.0913273,5.36241266 C22.5120534,5.9755913 22.7826271,6.68459253 22.908877,7.49226311 Z M20.2161339,7.76050191 C20.1659762,7.04494778 19.928128,6.50336752 19.4998622,6.13323665 C19.0751256,5.76208525 18.5445124,5.57575758 17.9113913,5.57575758 C17.2223374,5.57575758 16.6902804,5.77492247 16.3122258,6.16637709 C15.9316046,6.55702602 15.6947724,7.0881324 15.5977187,7.76055562 L20.2161339,7.76055562 L20.2161339,7.76050191 Z" id="Behance"></path>
            </g>
        </g>
    </g>
</svg>