<?xml version="1.0" encoding="utf-8"?>
<!-- Generator: Adobe Illustrator 23.0.2, SVG Export Plug-In . SVG Version: 6.00 Build 0)  -->
<svg version="1.1" id="레이어_2" xmlns="http://www.w3.org/2000/svg" xmlns:xlink="http://www.w3.org/1999/xlink" x="0px"
	 y="0px" viewBox="0 0 97 98.1" style="enable-background:new 0 0 97 98.1;" xml:space="preserve">
<style type="text/css">
	.st0{fill-rule:evenodd;clip-rule:evenodd;fill:#FFFFFF;}
	.st1{clip-path:url(#SVGID_2_);}
	.st2{fill-rule:evenodd;clip-rule:evenodd;fill:none;stroke:#353535;stroke-width:4;stroke-miterlimit:10;}
	
		.st3{fill-rule:evenodd;clip-rule:evenodd;fill:none;stroke:#353535;stroke-width:4;stroke-linecap:round;stroke-linejoin:round;stroke-miterlimit:10;}
</style>
<path class="st0" d="M5.6,49.6c0,0,19.3-21.3,43.1-21.3s43.1,21.3,43.1,21.3S72.5,70.9,48.7,70.9S5.6,49.6,5.6,49.6z"/>
<g>
	<defs>
		<path id="SVGID_1_" d="M84.6,40.5c0,0-16.4-13.8-36.2-13.8c0,0-27.6-0.1-42.9,22.9c0,0,8.1,20.2,42.9,23c0,0,30.6-0.4,43.2-23
			c0,0-0.2-1.6-2.7-4.2"/>
	</defs>
	<clipPath id="SVGID_2_">
		<use xlink:href="#SVGID_1_"  style="overflow:visible;"/>
	</clipPath>
	<g class="st1">
		<circle class="st2" cx="49" cy="49.6" r="21.8"/>
		<circle class="st2" cx="49" cy="49.6" r="7.4"/>
	</g>
</g>
<path class="st3" d="M87.4,45.4c2.8,2.5,4.3,4.2,4.3,4.2S72.5,70.9,48.7,70.9S5.6,49.6,5.6,49.6s19.3-21.3,43.1-21.3
	c12.6,0,23.9,6,31.8,11.6"/>
</svg>
