<?xml version="1.0" encoding="UTF-8"?>
<svg width="191px" height="41px" viewBox="0 0 191 41" version="1.1" xmlns="http://www.w3.org/2000/svg" xmlns:xlink="http://www.w3.org/1999/xlink">
    <!-- Generator: Sketch 59.1 (86144) - https://sketch.com -->
    <title>Group 103</title>
    <desc>Created with Sketch.</desc>
    <defs>
        <polygon id="path-1" points="0 41 190.524 41 190.524 0.454 0 0.454"></polygon>
    </defs>
    <g id="Symbols" stroke="none" stroke-width="1" fill="none" fill-rule="evenodd" opacity="0.4">
        <g id="634A7704" transform="translate(-60.000000, -737.000000)">
            <g id="Group-103" transform="translate(60.000000, 736.000000)">
                <polygon id="Fill-1" fill="#181818" points="74.541 19.8073 76.564 19.8073 76.564 16.3933 74.541 16.3933"></polygon>
                <g id="Group-102" transform="translate(0.000000, 0.546300)">
                    <path d="M71.3185,10.3514 L71.3185,11.5944 L77.9625,11.5944 L77.9625,13.1954 C77.9625,14.1054 77.8235,14.9614 77.6555,15.5284 L79.3915,15.5284 C79.7625,14.7584 79.9855,13.5594 79.9855,12.5104 L79.9855,10.3514 L71.3185,10.3514 Z" id="Fill-2" fill="#181818"></path>
                    <path d="M80.1031,18.6962 L71.2001,18.6962 L71.2001,19.9422 L78.0811,19.9422 L78.0811,23.6062 L78.9961,23.6062 C79.7301,23.6062 80.1031,23.4252 80.1031,22.7362 L80.1031,18.6962 Z" id="Fill-4" fill="#181818"></path>
                    <mask id="mask-2" fill="white">
                        <use xlink:href="#path-1"></use>
                    </mask>
                    <g id="Clip-7"></g>
                    <polygon id="Fill-6" fill="#181818" mask="url(#mask-2)" points="69.578 16.52 81.724 16.52 81.724 15.277 69.578 15.277"></polygon>
                    <path d="M65.692,20.055 L64.776,20.055 L64.776,10.041 L66.802,10.041 L66.802,19.185 C66.802,19.875 66.426,20.055 65.692,20.055" id="Fill-8" fill="#181818" mask="url(#mask-2)"></path>
                    <polygon id="Fill-9" fill="#181818" mask="url(#mask-2)" points="65.671 14.409 68.825 14.409 68.825 13.166 65.671 13.166"></polygon>
                    <polygon id="Fill-10" fill="#181818" mask="url(#mask-2)" points="58.716 12.281 60.739 12.281 60.739 9.892 58.716 9.892"></polygon>
                    <polygon id="Fill-11" fill="#181818" mask="url(#mask-2)" points="55.942 12.638 63.515 12.638 63.515 11.394 55.942 11.394"></polygon>
                    <path d="M60.3175,22.347 L60.3175,19.323 L58.2925,19.323 L58.2925,22.082 C58.2925,23.039 58.8685,23.589 59.8935,23.589 L66.9205,23.589 L66.9205,22.347 L60.3175,22.347 Z" id="Fill-12" fill="#181818" mask="url(#mask-2)"></path>
                    <path d="M59.7281,16.9261 C58.9491,16.9261 58.3171,16.0341 58.3171,14.9351 C58.3171,13.8351 58.9491,12.9441 59.7281,12.9441 C60.5061,12.9441 61.1371,13.8351 61.1371,14.9351 C61.1371,16.0341 60.5061,16.9261 59.7281,16.9261 M59.7281,11.7421 C57.8311,11.7421 56.2941,13.1711 56.2941,14.9351 C56.2941,16.6981 57.8311,18.1271 59.7281,18.1271 C61.6241,18.1271 63.1611,16.6981 63.1611,14.9351 C63.1611,13.1711 61.6241,11.7421 59.7281,11.7421" id="Fill-13" fill="#181818" mask="url(#mask-2)"></path>
                    <polygon id="Fill-14" fill="#181818" mask="url(#mask-2)" points="169.934 11.935 171.958 11.935 171.958 9.547 169.934 9.547"></polygon>
                    <polygon id="Fill-15" fill="#181818" mask="url(#mask-2)" points="166.018 12.175 175.876 12.175 175.876 10.931 166.018 10.931"></polygon>
                    <polygon id="Fill-16" fill="#181818" mask="url(#mask-2)" points="164.806 18.445 177.092 18.445 177.092 17.2 164.806 17.2"></polygon>
                    <path d="M170.9449,15.4203 C170.1989,15.4203 169.5929,14.7193 169.5929,13.8563 C169.5929,12.9923 170.1989,12.2923 170.9449,12.2923 C171.6929,12.2923 172.2979,12.9923 172.2979,13.8563 C172.2979,14.7193 171.6929,15.4203 170.9449,15.4203 M170.9449,11.0493 C169.0799,11.0493 167.5669,12.3053 167.5669,13.8563 C167.5669,15.4063 169.0799,16.6643 170.9449,16.6643 C172.8139,16.6643 174.3279,15.4063 174.3279,13.8563 C174.3279,12.3053 172.8139,11.0493 170.9449,11.0493" id="Fill-17" fill="#181818" mask="url(#mask-2)"></path>
                    <path d="M170.9449,22.8807 C170.0909,22.8807 169.3989,22.0287 169.3989,20.9787 C169.3989,19.9237 170.0909,19.0717 170.9449,19.0717 C171.8009,19.0717 172.4949,19.9237 172.4949,20.9787 C172.4949,22.0287 171.8009,22.8807 170.9449,22.8807 M170.9449,17.8577 C168.9329,17.8577 167.3039,19.2537 167.3039,20.9787 C167.3039,22.6987 168.9329,24.0957 170.9449,24.0957 C172.9589,24.0957 174.5899,22.6987 174.5899,20.9787 C174.5899,19.2537 172.9589,17.8577 170.9449,17.8577" id="Fill-18" fill="#181818" mask="url(#mask-2)"></path>
                    <path d="M188.944,20.3671 L188.029,20.3671 L188.029,10.0411 L190.052,10.0411 L190.052,19.4961 C190.052,20.1861 189.677,20.3671 188.944,20.3671" id="Fill-19" fill="#181818" mask="url(#mask-2)"></path>
                    <polygon id="Fill-20" fill="#181818" mask="url(#mask-2)" points="181.545 19.221 183.567 19.221 183.567 16.982 181.545 16.982"></polygon>
                    <polygon id="Fill-21" fill="#181818" mask="url(#mask-2)" points="185.021 19.123 188.341 19.123 188.341 17.939 185.021 17.939"></polygon>
                    <polygon id="Fill-22" fill="#181818" mask="url(#mask-2)" points="178.621 17.223 186.97 17.223 186.97 16.04 178.621 16.04"></polygon>
                    <path d="M183.567,22.9408 L183.567,19.8918 L181.545,19.8918 L181.545,22.0818 C181.545,23.0388 182.121,23.5888 183.145,23.5888 L190.171,23.5888 L190.171,22.3468 L183.145,22.3468" id="Fill-23" fill="#181818" mask="url(#mask-2)"></path>
                    <path d="M182.712,14.5043 C182.008,14.5043 181.435,13.7123 181.435,12.7373 C181.435,11.7603 182.008,10.9693 182.712,10.9693 C183.42,10.9693 183.992,11.7603 183.992,12.7373 C183.992,13.7123 183.42,14.5043 182.712,14.5043 M182.712,9.9033 C180.893,9.9033 179.419,11.1723 179.419,12.7373 C179.419,14.3023 180.893,15.5723 182.712,15.5723 C184.534,15.5723 186.011,14.3023 186.011,12.7373 C186.011,11.1723 184.534,9.9033 182.712,9.9033" id="Fill-24" fill="#181818" mask="url(#mask-2)"></path>
                    <path d="M147.8307,17.077 L146.9157,17.077 L146.9157,10.041 L148.9397,10.041 L148.9397,16.207 C148.9397,16.897 148.5657,17.077 147.8307,17.077" id="Fill-25" fill="#181818" mask="url(#mask-2)"></path>
                    <polygon id="Fill-26" fill="#181818" mask="url(#mask-2)" points="144.427 13.967 147.584 13.967 147.584 12.725 144.427 12.725"></polygon>
                    <polygon id="Fill-27" fill="#181818" mask="url(#mask-2)" points="142.035 20.722 147.18 20.722 147.18 19.478 142.035 19.478"></polygon>
                    <path d="M148.9396,17.9613 L146.9156,17.9613 L146.9156,22.3473 L142.3986,22.3473 L142.3986,17.9613 L140.3746,17.9613 L140.3746,22.0823 C140.3746,23.0393 140.9516,23.5893 141.9766,23.5893 L148.9396,23.5893 L148.9396,17.9613 Z" id="Fill-28" fill="#181818" mask="url(#mask-2)"></path>
                    <path d="M142.8995,13.493 C142.8995,14.677 142.2135,15.634 141.3675,15.634 C140.5215,15.634 139.8355,14.677 139.8355,13.493 C139.8355,12.31 140.5215,11.35 141.3675,11.35 C142.2135,11.35 142.8995,12.31 142.8995,13.493 M141.3675,10.057 C139.3595,10.057 137.7325,11.595 137.7325,13.493 C137.7325,15.391 139.3595,16.93 141.3675,16.93 C143.3755,16.93 145.0025,15.391 145.0025,13.493 C145.0025,11.595 143.3755,10.057 141.3675,10.057" id="Fill-29" fill="#181818" mask="url(#mask-2)"></path>
                    <path d="M106.9713,23.6063 L106.0553,23.6063 L106.0553,10.0413 L108.0793,10.0413 L108.0793,22.7353 C108.0793,23.4253 107.7073,23.6063 106.9713,23.6063" id="Fill-30" fill="#181818" mask="url(#mask-2)"></path>
                    <polygon id="Fill-31" fill="#181818" mask="url(#mask-2)" points="99.935 12.281 101.959 12.281 101.959 9.892 99.935 9.892"></polygon>
                    <polygon id="Fill-32" fill="#181818" mask="url(#mask-2)" points="99.935 19.728 101.959 19.728 101.959 17.34 99.935 17.34"></polygon>
                    <polygon id="Fill-33" fill="#181818" mask="url(#mask-2)" points="97.161 12.638 104.732 12.638 104.732 11.394 97.161 11.394"></polygon>
                    <path d="M102.7946,20.1371 L97.0826,20.1371 L97.0826,18.8931 L102.7946,18.8931 C103.8316,18.8931 105.5486,18.7491 106.3356,18.4221 L106.3356,19.4751 C105.6686,19.8681 104.1196,20.1371 102.7946,20.1371" id="Fill-34" fill="#181818" mask="url(#mask-2)"></path>
                    <path d="M100.9474,16.6161 C100.2014,16.6161 99.5954,15.7561 99.5954,14.6921 C99.5954,13.6311 100.2014,12.7701 100.9474,12.7701 C101.6944,12.7701 102.2974,13.6311 102.2974,14.6921 C102.2974,15.7561 101.6944,16.6161 100.9474,16.6161 M100.9474,11.6081 C99.0824,11.6081 97.5724,12.9881 97.5724,14.6921 C97.5724,16.3961 99.0824,17.7781 100.9474,17.7781 C102.8104,17.7781 104.3214,16.3961 104.3214,14.6921 C104.3214,12.9881 102.8104,11.6081 100.9474,11.6081" id="Fill-35" fill="#181818" mask="url(#mask-2)"></path>
                    <path d="M92.5778,23.6063 L91.6638,23.6063 L91.6638,10.0413 L93.6838,10.0413 L93.6838,22.7353 C93.6838,23.4253 93.3118,23.6063 92.5778,23.6063" id="Fill-36" fill="#181818" mask="url(#mask-2)"></path>
                    <polygon id="Fill-37" fill="#181818" mask="url(#mask-2)" points="92.555 14.778 95.707 14.778 95.707 13.534 92.555 13.534"></polygon>
                    <polygon id="Fill-38" fill="#181818" mask="url(#mask-2)" points="85.598 12.742 87.678 12.742 87.678 10.352 85.598 10.352"></polygon>
                    <path d="M85.5978,12.7416 C85.5978,13.7896 85.4478,16.4406 82.3588,17.9686 L83.3458,18.9196 C84.4678,18.4876 86.3388,17.1506 86.9608,15.6926 L86.9608,12.3356 L85.5978,12.7416 Z" id="Fill-39" fill="#181818" mask="url(#mask-2)"></path>
                    <path d="M87.6779,12.7416 C87.6779,13.7896 87.8269,16.4406 90.9129,17.9686 L89.9289,18.9196 C88.8089,18.4876 86.9359,17.1506 86.3139,15.6926 L86.3139,12.3356 L87.6779,12.7416 Z" id="Fill-40" fill="#181818" mask="url(#mask-2)"></path>
                    <path d="M134.0988,23.6063 L133.1838,23.6063 L133.1838,10.0413 L135.2098,10.0413 L135.2098,22.7353 C135.2098,23.4253 134.8318,23.6063 134.0988,23.6063" id="Fill-41" fill="#181818" mask="url(#mask-2)"></path>
                    <polygon id="Fill-42" fill="#181818" mask="url(#mask-2)" points="124.555 11.742 130.428 11.742 130.428 10.498 124.555 10.498"></polygon>
                    <path d="M128.8966,11.4198 C128.8966,14.3048 126.6366,17.0098 124.0596,18.2418 L125.0446,19.1958 C126.7826,18.4538 131.0966,16.0028 131.0966,11.3008 L131.0966,10.4978 L128.8966,10.4978 L128.8966,11.4198 Z" id="Fill-43" fill="#181818" mask="url(#mask-2)"></path>
                    <path d="M120.5118,17.5848 L119.5958,17.5848 L119.5958,10.0418 L121.6208,10.0418 L121.6208,16.7128 C121.6208,17.4028 121.2448,17.5848 120.5118,17.5848" id="Fill-44" fill="#181818" mask="url(#mask-2)"></path>
                    <path d="M120.5118,23.6063 L119.5958,23.6063 L119.5958,19.0783 L121.6208,19.0783 L121.6208,22.7353 C121.6208,23.4253 121.2448,23.6063 120.5118,23.6063" id="Fill-45" fill="#181818" mask="url(#mask-2)"></path>
                    <polygon id="Fill-46" fill="#181818" mask="url(#mask-2)" points="117.268 14.24 120.422 14.24 120.422 12.997 117.268 12.997"></polygon>
                    <polygon id="Fill-47" fill="#181818" mask="url(#mask-2)" points="110.859 11.595 117.767 11.595 117.767 10.352 110.859 10.352"></polygon>
                    <polygon id="Fill-48" fill="#181818" mask="url(#mask-2)" points="112.6 19.827 121.621 19.827 121.621 18.583 112.6 18.583"></polygon>
                    <path d="M113.2726,11.576 C113.2726,13.101 113.0716,15.021 110.0926,16.447 L111.0786,17.399 C112.2256,16.967 114.0416,15.848 114.6376,14.409 L114.6376,11.173 L113.2726,11.576 Z" id="Fill-49" fill="#181818" mask="url(#mask-2)"></path>
                    <path d="M115.3566,11.576 C115.3566,13.101 115.5566,15.021 118.5356,16.447 L117.5496,17.399 C116.4006,16.967 114.5846,15.848 113.9906,14.409 L113.9906,11.173 L115.3566,11.576 Z" id="Fill-50" fill="#181818" mask="url(#mask-2)"></path>
                    <path d="M161.4655,20.055 L160.5495,20.055 L160.5495,10.041 L162.5745,10.041 L162.5745,19.185 C162.5745,19.875 162.2025,20.055 161.4655,20.055" id="Fill-51" fill="#181818" mask="url(#mask-2)"></path>
                    <path d="M161.4655,20.055 L160.5495,20.055 L160.5495,10.041 L162.5745,10.041 L162.5745,19.185 C162.5745,19.875 162.2025,20.055 161.4655,20.055" id="Fill-52" fill="#181818" mask="url(#mask-2)"></path>
                    <path d="M156.0885,22.9408 L156.0885,19.0728 L154.0665,19.0728 L154.0665,22.0818 C154.0665,23.0388 154.6435,23.5888 155.6665,23.5888 L162.6925,23.5888 L162.6925,22.3468 L155.6665,22.3468" id="Fill-53" fill="#181818" mask="url(#mask-2)"></path>
                    <polygon id="Fill-54" fill="#181818" mask="url(#mask-2)" points="151.697 11.595 158.721 11.595 158.721 10.352 151.697 10.352"></polygon>
                    <path d="M154.1656,11.576 C154.1656,13.101 153.9486,15.655 150.9256,17.074 L151.9116,18.027 C153.1056,17.616 154.9166,16.363 155.5326,14.918 L155.5326,11.173 L154.1656,11.576 Z" id="Fill-55" fill="#181818" mask="url(#mask-2)"></path>
                    <path d="M156.2516,11.576 C156.2516,13.101 156.4696,15.655 159.4896,17.074 L158.5026,18.027 C157.3096,17.616 155.5016,16.363 154.8826,14.918 L154.8826,11.173 L156.2516,11.576 Z" id="Fill-56" fill="#181818" mask="url(#mask-2)"></path>
                    <polygon id="Fill-57" fill="#181818" mask="url(#mask-2)" points="57.9386 27.5028 58.9076 27.5028 58.9076 29.7418 58.9306 29.7418 60.4366 27.5028 61.5496 27.5028 59.7556 29.9918 61.6916 32.7848 60.5206 32.7848 58.9306 30.3028 58.9076 30.3028 58.9076 32.7848 57.9386 32.7848"></polygon>
                    <path d="M62.7643,31.3319 C62.7863,31.4889 62.8253,31.6299 62.8813,31.7599 C62.9363,31.8889 63.0143,31.9909 63.1123,32.0669 C63.2113,32.1419 63.3333,32.1799 63.4783,32.1799 C63.6253,32.1799 63.7483,32.1419 63.8473,32.0669 C63.9443,31.9909 64.0203,31.8899 64.0733,31.7629 C64.1263,31.6379 64.1633,31.4949 64.1863,31.3349 C64.2093,31.1759 64.2213,31.0089 64.2213,30.8319 C64.2213,30.6559 64.2093,30.4899 64.1863,30.3319 C64.1633,30.1759 64.1253,30.0349 64.0693,29.9089 C64.0143,29.7829 63.9383,29.6829 63.8433,29.6059 C63.7463,29.5309 63.6253,29.4929 63.4783,29.4929 C63.3333,29.4929 63.2113,29.5309 63.1123,29.6059 C63.0143,29.6829 62.9363,29.7829 62.8813,29.9089 C62.8253,30.0349 62.7863,30.1759 62.7643,30.3319 C62.7413,30.4899 62.7303,30.6559 62.7303,30.8319 C62.7303,31.0089 62.7413,31.1759 62.7643,31.3319 M61.9093,29.8709 C62.0063,29.6089 62.1393,29.4019 62.3063,29.2499 C62.4723,29.0989 62.6563,28.9909 62.8543,28.9249 C63.0543,28.8589 63.2623,28.8279 63.4783,28.8279 C63.6963,28.8279 63.9043,28.8589 64.1033,28.9249 C64.3023,28.9909 64.4843,29.0989 64.6493,29.2499 C64.8123,29.4019 64.9433,29.6089 65.0423,29.8709 C65.1413,30.1349 65.1893,30.4549 65.1893,30.8319 C65.1893,31.2199 65.1413,31.5489 65.0423,31.8159 C64.9433,32.0829 64.8123,32.2919 64.6493,32.4409 C64.4843,32.5899 64.3053,32.6939 64.1073,32.7549 C63.9103,32.8149 63.7013,32.8459 63.4783,32.8459 C63.2573,32.8459 63.0483,32.8149 62.8513,32.7549 C62.6543,32.6939 62.4723,32.5879 62.3063,32.4369 C62.1393,32.2859 62.0063,32.0769 61.9093,31.8119 C61.8113,31.5479 61.7613,31.2199 61.7613,30.8319 C61.7613,30.4549 61.8113,30.1349 61.9093,29.8709" id="Fill-58" fill="#181818" mask="url(#mask-2)"></path>
                    <path d="M65.9615,29.5311 C65.9615,29.2571 65.9505,29.0441 65.9305,28.8861 L66.7775,28.8861 C66.7775,28.9471 66.7835,29.0411 66.7935,29.1671 C66.8035,29.3591 66.8085,29.5031 66.8085,29.5991 L66.8235,29.5991 C66.9005,29.3971 67.0185,29.2181 67.1805,29.0611 C67.3405,28.9051 67.5545,28.8271 67.8155,28.8271 C67.8415,28.8271 67.8755,28.8311 67.9225,28.8421 C67.9525,28.8461 67.9695,28.8501 67.9735,28.8501 L67.9735,29.7271 C67.8835,29.7021 67.7955,29.6891 67.7095,29.6891 C67.4875,29.6891 67.2965,29.7661 67.1385,29.9211 C66.9795,30.0751 66.9005,30.3181 66.9005,30.6511 L66.9005,32.7851 L65.9615,32.7851 L65.9615,29.5311 Z" id="Fill-59" fill="#181818" mask="url(#mask-2)"></path>
                    <path d="M70.6686,30.4994 C70.6686,29.8084 70.4506,29.4624 70.0166,29.4624 C69.7846,29.4624 69.6106,29.5644 69.4966,29.7654 C69.3786,29.9674 69.3226,30.2114 69.3226,30.4994 L70.6686,30.4994 Z M71.3806,32.5964 C71.2226,32.6614 71.0506,32.7194 70.8626,32.7704 C70.6716,32.8204 70.4566,32.8454 70.2136,32.8454 C69.9126,32.8454 69.6446,32.7954 69.4166,32.6934 C69.1866,32.5934 68.9976,32.4534 68.8486,32.2704 C68.6996,32.0884 68.5896,31.8804 68.5196,31.6494 C68.4486,31.4174 68.4146,31.1654 68.4146,30.8924 C68.4146,30.6024 68.4496,30.3284 68.5236,30.0794 C68.5966,29.8294 68.7036,29.6104 68.8446,29.4204 C68.9866,29.2314 69.1576,29.0854 69.3556,28.9834 C69.5556,28.8774 69.7756,28.8274 70.0166,28.8274 C70.2396,28.8274 70.4436,28.8614 70.6306,28.9334 C70.8166,29.0024 70.9806,29.1194 71.1226,29.2814 C71.2646,29.4424 71.3756,29.6584 71.4556,29.9284 C71.5366,30.1974 71.5776,30.5234 71.5776,30.9084 L71.5776,31.0894 L69.3226,31.0894 C69.3226,31.4374 69.3986,31.7034 69.5516,31.8844 C69.7076,32.0664 69.9586,32.1574 70.3136,32.1574 C70.5696,32.1574 70.7746,32.1294 70.9266,32.0734 C71.0776,32.0174 71.2136,31.9434 71.3346,31.8534 L71.3806,32.5964 Z" id="Fill-60" fill="#181818" mask="url(#mask-2)"></path>
                    <path d="M74.339,30.8773 L74.256,30.8773 C73.832,30.8773 73.514,30.9323 73.298,31.0403 C73.085,31.1483 72.977,31.3393 72.977,31.6123 C72.977,31.7873 73.03,31.9313 73.141,32.0433 C73.249,32.1543 73.394,32.2103 73.575,32.2103 C73.842,32.2103 74.036,32.1143 74.158,31.9263 C74.279,31.7373 74.339,31.4603 74.339,31.0973 L74.339,30.8773 Z M72.492,29.1143 C72.684,29.0283 72.873,28.9593 73.056,28.9063 C73.241,28.8523 73.463,28.8273 73.726,28.8273 C74.024,28.8273 74.27,28.8613 74.464,28.9333 C74.658,29.0023 74.81,29.1043 74.918,29.2343 C75.027,29.3663 75.104,29.5263 75.15,29.7163 C75.194,29.9053 75.218,30.1303 75.218,30.3943 L75.218,32.0963 C75.218,32.2223 75.223,32.3453 75.233,32.4663 C75.243,32.5883 75.255,32.6933 75.271,32.7853 L74.422,32.7853 C74.387,32.6693 74.37,32.4913 74.37,32.2543 L74.354,32.2543 C74.218,32.4423 74.067,32.5873 73.901,32.6903 C73.735,32.7933 73.522,32.8453 73.264,32.8453 C72.946,32.8453 72.673,32.7423 72.444,32.5353 C72.214,32.3283 72.099,32.0503 72.099,31.7033 C72.099,31.4453 72.149,31.2303 72.246,31.0563 C72.345,30.8813 72.485,30.7443 72.667,30.6473 C72.849,30.5483 73.062,30.4793 73.307,30.4393 C73.552,30.3983 73.832,30.3773 74.15,30.3773 L74.339,30.3773 L74.339,30.2343 C74.339,30.0233 74.282,29.8463 74.165,29.7053 C74.048,29.5643 73.866,29.4923 73.612,29.4923 C73.401,29.4923 73.2,29.5313 73.007,29.6103 C72.816,29.6893 72.661,29.7753 72.546,29.8713 L72.492,29.1143 Z" id="Fill-61" fill="#181818" mask="url(#mask-2)"></path>
                    <path d="M78.1241,31.7626 C78.2541,31.8436 78.4171,31.9186 78.6121,31.9876 C78.8061,32.0556 79.0171,32.0886 79.2441,32.0886 C79.4691,32.0886 79.6601,32.0246 79.8151,31.8956 C79.9691,31.7666 80.0461,31.5766 80.0461,31.3246 C80.0461,31.1476 79.9971,31.0056 79.8941,30.8976 C79.7941,30.7866 79.6141,30.6636 79.3571,30.5216 L78.8661,30.2506 C78.5861,30.0976 78.3741,29.9106 78.2271,29.6856 C78.0771,29.4606 78.0011,29.1886 78.0011,28.8646 C78.0011,28.4116 78.1621,28.0576 78.4821,27.8056 C78.8041,27.5536 79.1981,27.4276 79.6671,27.4276 C79.8851,27.4276 80.0771,27.4426 80.2421,27.4756 C80.4091,27.5086 80.5681,27.5506 80.7191,27.6016 L80.7721,27.6166 L80.7271,28.4256 C80.7221,28.4256 80.7051,28.4186 80.6741,28.4016 C80.5081,28.3386 80.3541,28.2866 80.2161,28.2516 C80.0771,28.2176 79.9171,28.1986 79.7351,28.1986 C79.4991,28.1986 79.3151,28.2546 79.1911,28.3686 C79.0651,28.4816 79.0031,28.6316 79.0031,28.8186 C79.0031,28.9956 79.0461,29.1326 79.1371,29.2286 C79.2271,29.3236 79.3701,29.4246 79.5621,29.5316 L80.1281,29.8486 C80.4571,30.0296 80.6911,30.2256 80.8331,30.4316 C80.9751,30.6386 81.0431,30.9186 81.0431,31.2706 C81.0431,31.7856 80.8821,32.1796 80.5551,32.4526 C80.2301,32.7246 79.8041,32.8616 79.2721,32.8616 C78.7331,32.8616 78.3321,32.7836 78.0701,32.6256 L78.1241,31.7626 Z" id="Fill-62" fill="#181818" mask="url(#mask-2)"></path>
                    <path d="M82.736,31.3319 C82.759,31.4889 82.796,31.6299 82.852,31.7599 C82.909,31.8889 82.985,31.9909 83.084,32.0669 C83.182,32.1419 83.304,32.1799 83.452,32.1799 C83.597,32.1799 83.719,32.1419 83.819,32.0669 C83.917,31.9909 83.993,31.8899 84.046,31.7629 C84.098,31.6379 84.135,31.4949 84.159,31.3349 C84.181,31.1759 84.193,31.0089 84.193,30.8319 C84.193,30.6559 84.181,30.4899 84.159,30.3319 C84.135,30.1759 84.098,30.0349 84.042,29.9089 C83.986,29.7829 83.91,29.6829 83.815,29.6059 C83.718,29.5309 83.597,29.4929 83.452,29.4929 C83.304,29.4929 83.182,29.5309 83.084,29.6059 C82.985,29.6829 82.909,29.7829 82.852,29.9089 C82.796,30.0349 82.759,30.1759 82.736,30.3319 C82.714,30.4899 82.701,30.6559 82.701,30.8319 C82.701,31.0089 82.714,31.1759 82.736,31.3319 M81.882,29.8709 C81.98,29.6089 82.111,29.4019 82.278,29.2499 C82.445,29.0989 82.627,28.9909 82.826,28.9249 C83.026,28.8589 83.235,28.8279 83.452,28.8279 C83.668,28.8279 83.875,28.8589 84.076,28.9249 C84.274,28.9909 84.457,29.0989 84.621,29.2499 C84.784,29.4019 84.916,29.6089 85.013,29.8709 C85.111,30.1349 85.16,30.4549 85.16,30.8319 C85.16,31.2199 85.111,31.5489 85.013,31.8159 C84.916,32.0829 84.784,32.2919 84.621,32.4409 C84.457,32.5899 84.277,32.6939 84.08,32.7549 C83.883,32.8149 83.673,32.8459 83.452,32.8459 C83.228,32.8459 83.02,32.8149 82.824,32.7549 C82.626,32.6939 82.445,32.5879 82.278,32.4369 C82.111,32.2859 81.98,32.0769 81.882,31.8119 C81.783,31.5479 81.733,31.2199 81.733,30.8319 C81.733,30.4549 81.783,30.1349 81.882,29.8709" id="Fill-63" fill="#181818" mask="url(#mask-2)"></path>
                    <path d="M88.546,32.6859 C88.425,32.7319 88.286,32.7699 88.126,32.7989 C87.968,32.8309 87.8,32.8459 87.625,32.8459 C87.311,32.8459 87.041,32.7929 86.809,32.6899 C86.576,32.5869 86.384,32.4449 86.233,32.2629 C86.084,32.0809 85.973,31.8689 85.901,31.6259 C85.832,31.3859 85.795,31.1229 85.795,30.8399 C85.795,30.5579 85.834,30.2939 85.908,30.0479 C85.984,29.8049 86.099,29.5909 86.253,29.4089 C86.405,29.2279 86.604,29.0849 86.842,28.9829 C87.081,28.8779 87.359,28.8279 87.677,28.8279 C87.814,28.8279 87.959,28.8439 88.113,28.8759 C88.265,28.9079 88.391,28.9459 88.493,28.9859 L88.441,29.7269 C88.329,29.6709 88.221,29.6269 88.117,29.5909 C88.009,29.5549 87.899,29.5379 87.782,29.5379 C87.435,29.5379 87.177,29.6499 87.011,29.8709 C86.846,30.0939 86.763,30.4189 86.763,30.8469 C86.763,31.2269 86.854,31.5349 87.039,31.7749 C87.224,32.0139 87.485,32.1349 87.828,32.1349 C87.935,32.1349 88.052,32.1139 88.188,32.0729 C88.32,32.0339 88.422,31.9909 88.493,31.9439 L88.546,32.6859 Z" id="Fill-64" fill="#181818" mask="url(#mask-2)"></path>
                    <path d="M89.21,32.785 L90.149,32.785 L90.149,28.887 L89.21,28.887 L89.21,32.785 Z M89.197,28.153 L90.162,28.153 L90.162,27.23 L89.197,27.23 L89.197,28.153 Z" id="Fill-65" fill="#181818" mask="url(#mask-2)"></path>
                    <path d="M93.1173,30.8773 L93.0333,30.8773 C92.6093,30.8773 92.2923,30.9323 92.0793,31.0403 C91.8633,31.1483 91.7563,31.3393 91.7563,31.6123 C91.7563,31.7873 91.8103,31.9313 91.9183,32.0433 C92.0273,32.1543 92.1723,32.2103 92.3533,32.2103 C92.6203,32.2103 92.8143,32.1143 92.9363,31.9263 C93.0573,31.7373 93.1173,31.4603 93.1173,31.0973 L93.1173,30.8773 Z M91.2723,29.1143 C91.4643,29.0283 91.6523,28.9593 91.8343,28.9063 C92.0203,28.8523 92.2423,28.8273 92.5043,28.8273 C92.8023,28.8273 93.0473,28.8613 93.2393,28.9333 C93.4353,29.0023 93.5863,29.1043 93.6943,29.2343 C93.8033,29.3663 93.8793,29.5263 93.9263,29.7163 C93.9703,29.9053 93.9923,30.1303 93.9923,30.3943 L93.9923,32.0963 C93.9923,32.2223 93.9983,32.3453 94.0093,32.4663 C94.0183,32.5883 94.0323,32.6933 94.0453,32.7853 L93.2003,32.7853 C93.1623,32.6693 93.1473,32.4913 93.1473,32.2543 L93.1313,32.2543 C92.9963,32.4423 92.8443,32.5873 92.6773,32.6903 C92.5133,32.7933 92.2993,32.8453 92.0443,32.8453 C91.7263,32.8453 91.4533,32.7423 91.2253,32.5353 C90.9933,32.3283 90.8813,32.0503 90.8813,31.7033 C90.8813,31.4453 90.9293,31.2303 91.0273,31.0563 C91.1273,30.8813 91.2673,30.7443 91.4463,30.6473 C91.6283,30.5483 91.8413,30.4793 92.0853,30.4393 C92.3293,30.3983 92.6093,30.3773 92.9283,30.3773 L93.1173,30.3773 L93.1173,30.2343 C93.1173,30.0233 93.0583,29.8463 92.9433,29.7053 C92.8253,29.5643 92.6423,29.4923 92.3903,29.4923 C92.1803,29.4923 91.9783,29.5313 91.7883,29.6103 C91.5963,29.6893 91.4423,29.7753 91.3263,29.8713 L91.2723,29.1143 Z" id="Fill-66" fill="#181818" mask="url(#mask-2)"></path>
                    <polygon id="Fill-67" fill="#181818" mask="url(#mask-2)" points="94.954 32.785 95.894 32.785 95.894 27.108 94.954 27.108"></polygon>
                    <polygon id="Fill-68" fill="#181818" mask="url(#mask-2)" points="98.9352 27.5028 101.7132 27.5028 101.7132 28.2738 99.9042 28.2738 99.9042 29.6828 101.6142 29.6828 101.6142 30.4548 99.9042 30.4548 99.9042 32.0138 101.7892 32.0138 101.7892 32.7848 98.9352 32.7848"></polygon>
                    <path d="M102.5826,29.5311 C102.5826,29.2571 102.5716,29.0441 102.5536,28.8861 L103.4316,28.8861 C103.4316,28.9371 103.4346,29.0171 103.4456,29.1221 C103.4566,29.2831 103.4596,29.4041 103.4596,29.4841 L103.4816,29.4841 L103.4756,29.4841 C103.5206,29.4091 103.5706,29.3361 103.6236,29.2661 C103.6756,29.1951 103.7416,29.1261 103.8246,29.0571 C103.9046,28.9891 104.0036,28.9331 104.1196,28.8901 C104.2336,28.8481 104.3666,28.8271 104.5126,28.8271 C104.7296,28.8271 104.9106,28.8641 105.0606,28.9361 C105.2106,29.0101 105.3276,29.1121 105.4166,29.2431 C105.5056,29.3751 105.5686,29.5271 105.6066,29.7001 C105.6446,29.8741 105.6636,30.0661 105.6636,30.2711 L105.6636,32.7851 L104.7246,32.7851 L104.7246,30.4451 C104.7246,30.1431 104.6826,29.9271 104.5976,29.7961 C104.5176,29.6651 104.3796,29.5991 104.1866,29.5991 C103.9556,29.5991 103.7846,29.6831 103.6796,29.8521 C103.5736,30.0211 103.5206,30.2421 103.5206,30.5141 L103.5206,32.7851 L102.5826,32.7851 L102.5826,29.5311 Z" id="Fill-69" fill="#181818" mask="url(#mask-2)"></path>
                    <path d="M106.8575,28.0838 L107.7965,27.7968 L107.7965,28.8868 L108.5755,28.8868 L108.5755,29.5768 L107.7965,29.5768 L107.7965,31.5968 C107.7965,31.7928 107.8325,31.9318 107.9015,32.0138 C107.9735,32.0938 108.0795,32.1348 108.2195,32.1348 C108.3565,32.1348 108.4745,32.1058 108.5755,32.0508 L108.5755,32.7148 C108.3945,32.8018 108.1845,32.8458 107.9475,32.8458 C107.5915,32.8458 107.3175,32.7558 107.1355,32.5778 C106.9495,32.3978 106.8575,32.1078 106.8575,31.7088 L106.8575,29.5768 L106.2375,29.5768 L106.2375,28.8868 L106.8575,28.8868 L106.8575,28.0838 Z" id="Fill-70" fill="#181818" mask="url(#mask-2)"></path>
                    <path d="M111.3234,30.4994 C111.3234,29.8084 111.1074,29.4624 110.6724,29.4624 C110.4414,29.4624 110.2674,29.5644 110.1514,29.7654 C110.0334,29.9674 109.9754,30.2114 109.9754,30.4994 L111.3234,30.4994 Z M112.0344,32.5964 C111.8784,32.6614 111.7074,32.7194 111.5174,32.7704 C111.3274,32.8204 111.1124,32.8454 110.8694,32.8454 C110.5654,32.8454 110.3014,32.7954 110.0704,32.6934 C109.8404,32.5934 109.6524,32.4534 109.5054,32.2704 C109.3554,32.0884 109.2444,31.8804 109.1754,31.6494 C109.1034,31.4174 109.0674,31.1654 109.0674,30.8924 C109.0674,30.6024 109.1054,30.3284 109.1784,30.0794 C109.2514,29.8294 109.3584,29.6104 109.4984,29.4204 C109.6404,29.2314 109.8114,29.0854 110.0114,28.9834 C110.2114,28.8774 110.4304,28.8274 110.6724,28.8274 C110.8944,28.8274 111.0994,28.8614 111.2874,28.9334 C111.4724,29.0024 111.6364,29.1194 111.7784,29.2814 C111.9194,29.4424 112.0294,29.6584 112.1114,29.9284 C112.1904,30.1974 112.2324,30.5234 112.2324,30.9084 L112.2324,31.0894 L109.9754,31.0894 C109.9754,31.4374 110.0524,31.7034 110.2074,31.8844 C110.3614,32.0664 110.6154,32.1574 110.9684,32.1574 C111.2254,32.1574 111.4284,32.1294 111.5804,32.0734 C111.7334,32.0174 111.8684,31.9434 111.9894,31.8534 L112.0344,32.5964 Z" id="Fill-71" fill="#181818" mask="url(#mask-2)"></path>
                    <path d="M112.9889,29.5311 C112.9889,29.2571 112.9779,29.0441 112.9579,28.8861 L113.8059,28.8861 C113.8059,28.9471 113.8109,29.0411 113.8209,29.1671 C113.8319,29.3591 113.8349,29.5031 113.8349,29.5991 L113.8519,29.5991 C113.9259,29.3971 114.0479,29.2181 114.2069,29.0611 C114.3689,28.9051 114.5809,28.8271 114.8429,28.8271 C114.8669,28.8271 114.9049,28.8311 114.9479,28.8421 C114.9789,28.8461 114.9959,28.8501 115.0019,28.8501 L115.0019,29.7271 C114.9099,29.7021 114.8229,29.6891 114.7369,29.6891 C114.5149,29.6891 114.3229,29.7661 114.1659,29.9211 C114.0069,30.0751 113.9259,30.3181 113.9259,30.6511 L113.9259,32.7851 L112.9889,32.7851 L112.9889,29.5311 Z" id="Fill-72" fill="#181818" mask="url(#mask-2)"></path>
                    <path d="M116.7545,31.8006 C116.8715,32.0386 117.0555,32.1566 117.3005,32.1566 C117.5555,32.1566 117.7335,32.0466 117.8445,31.8236 C117.9525,31.6026 118.0055,31.2836 118.0055,30.8696 C118.0055,30.3966 117.9565,30.0506 117.8575,29.8366 C117.7585,29.6236 117.5805,29.5156 117.3185,29.5156 C117.0605,29.5156 116.8715,29.6366 116.7545,29.8786 C116.6355,30.1206 116.5765,30.4436 116.5765,30.8466 C116.5765,31.2466 116.6355,31.5626 116.7545,31.8006 L116.7545,31.8006 Z M115.6365,29.5526 C115.6365,29.2346 115.6275,29.0126 115.6085,28.8866 L116.4855,28.8866 C116.5045,29.0386 116.5155,29.2416 116.5155,29.4926 L116.5385,29.4926 C116.6295,29.2966 116.7545,29.1356 116.9175,29.0116 C117.0785,28.8886 117.2965,28.8276 117.5755,28.8276 C117.8115,28.8276 118.0195,28.8776 118.1905,28.9836 C118.3655,29.0856 118.5065,29.2286 118.6185,29.4136 C118.7305,29.5976 118.8105,29.8106 118.8655,30.0536 C118.9185,30.2946 118.9445,30.5546 118.9445,30.8326 C118.9445,31.4636 118.8265,31.9566 118.5885,32.3116 C118.3525,32.6676 118.0225,32.8456 117.5985,32.8456 C117.3395,32.8456 117.1285,32.7866 116.9625,32.6676 C116.7965,32.5496 116.6725,32.4016 116.5915,32.2246 L116.5765,32.2246 L116.5765,34.4206 L115.6365,34.4206 L115.6365,29.5526 Z" id="Fill-73" fill="#181818" mask="url(#mask-2)"></path>
                    <path d="M119.7169,29.5311 C119.7169,29.2571 119.7049,29.0441 119.6859,28.8861 L120.5329,28.8861 C120.5329,28.9471 120.5389,29.0411 120.5499,29.1671 C120.5579,29.3591 120.5649,29.5031 120.5649,29.5991 L120.5789,29.5991 C120.6539,29.3971 120.7759,29.2181 120.9349,29.0611 C121.0969,28.9051 121.3089,28.8271 121.5709,28.8271 C121.5949,28.8271 121.6319,28.8311 121.6769,28.8421 C121.7069,28.8461 121.7239,28.8501 121.7289,28.8501 L121.7289,29.7271 C121.6399,29.7021 121.5509,29.6891 121.4649,29.6891 C121.2429,29.6891 121.0519,29.7661 120.8929,29.9211 C120.7349,30.0751 120.6539,30.3181 120.6539,30.6511 L120.6539,32.7851 L119.7169,32.7851 L119.7169,29.5311 Z" id="Fill-74" fill="#181818" mask="url(#mask-2)"></path>
                    <path d="M122.442,32.785 L123.379,32.785 L123.379,28.887 L122.442,28.887 L122.442,32.785 Z M122.425,28.153 L123.396,28.153 L123.396,27.23 L122.425,27.23 L122.425,28.153 Z" id="Fill-75" fill="#181818" mask="url(#mask-2)"></path>
                    <path d="M124.2115,31.8768 C124.2325,31.8868 124.2565,31.8978 124.2885,31.9068 C124.4355,31.9728 124.5795,32.0268 124.7235,32.0698 C124.8675,32.1138 125.0225,32.1348 125.1875,32.1348 C125.3755,32.1348 125.5205,32.1048 125.6315,32.0478 C125.7395,31.9898 125.7945,31.8898 125.7945,31.7478 C125.7945,31.6628 125.7655,31.5818 125.7075,31.5058 C125.6485,31.4298 125.5385,31.3468 125.3765,31.2558 L124.9905,31.0288 L124.9775,31.0218 C124.8455,30.9418 124.7375,30.8718 124.6535,30.8128 C124.5705,30.7558 124.4915,30.6848 124.4155,30.6018 C124.3415,30.5178 124.2795,30.4208 124.2335,30.3108 C124.1905,30.1988 124.1655,30.0728 124.1655,29.9318 C124.1655,29.7958 124.1965,29.6608 124.2615,29.5308 C124.3245,29.3988 124.4145,29.2818 124.5325,29.1738 C124.6525,29.0678 124.7945,28.9838 124.9605,28.9208 C125.1285,28.8568 125.3125,28.8278 125.5135,28.8278 C125.7315,28.8278 125.9195,28.8438 126.0865,28.8788 C126.2495,28.9148 126.3835,28.9498 126.4895,28.9858 L126.4375,29.7108 C126.2905,29.6578 126.1545,29.6148 126.0285,29.5838 C125.9015,29.5528 125.7635,29.5378 125.6115,29.5378 C125.4305,29.5378 125.2965,29.5708 125.2095,29.6368 C125.1185,29.7028 125.0745,29.7958 125.0745,29.9168 C125.0745,30.0128 125.1075,30.0938 125.1735,30.1628 C125.2385,30.2308 125.3525,30.3148 125.5135,30.4168 L125.9735,30.7108 C126.2425,30.8838 126.4295,31.0378 126.5395,31.1718 C126.6475,31.3088 126.7025,31.4818 126.7025,31.6948 C126.7025,32.0478 126.5655,32.3288 126.2965,32.5348 C126.0275,32.7418 125.6775,32.8458 125.2495,32.8458 C125.0315,32.8458 124.8285,32.8268 124.6395,32.7888 C124.4485,32.7498 124.2935,32.7068 124.1655,32.6558 L124.2115,31.8768 Z" id="Fill-76" fill="#181818" mask="url(#mask-2)"></path>
                    <path d="M129.5475,30.4994 C129.5475,29.8084 129.3315,29.4624 128.8985,29.4624 C128.6645,29.4624 128.4905,29.5644 128.3755,29.7654 C128.2585,29.9674 128.2015,30.2114 128.2015,30.4994 L129.5475,30.4994 Z M130.2595,32.5964 C130.1045,32.6614 129.9305,32.7194 129.7405,32.7704 C129.5495,32.8204 129.3355,32.8454 129.0935,32.8454 C128.7915,32.8454 128.5255,32.7954 128.2965,32.6934 C128.0675,32.5934 127.8755,32.4534 127.7275,32.2704 C127.5795,32.0884 127.4685,31.8804 127.3985,31.6494 C127.3275,31.4174 127.2925,31.1654 127.2925,30.8924 C127.2925,30.6024 127.3285,30.3284 127.4015,30.0794 C127.4745,29.8294 127.5845,29.6104 127.7245,29.4204 C127.8645,29.2314 128.0355,29.0854 128.2355,28.9834 C128.4335,28.8774 128.6555,28.8274 128.8985,28.8274 C129.1185,28.8274 129.3225,28.8614 129.5095,28.9334 C129.6965,29.0024 129.8605,29.1194 130.0005,29.2814 C130.1425,29.4424 130.2555,29.6584 130.3345,29.9284 C130.4155,30.1974 130.4555,30.5234 130.4555,30.9084 L130.4555,31.0894 L128.2015,31.0894 C128.2015,31.4374 128.2765,31.7034 128.4315,31.8844 C128.5835,32.0664 128.8395,32.1574 129.1915,32.1574 C129.4485,32.1574 129.6525,32.1294 129.8055,32.0734 C129.9565,32.0174 130.0935,31.9434 130.2135,31.8534 L130.2595,32.5964 Z" id="Fill-77" fill="#181818" mask="url(#mask-2)"></path>
                    <path d="M134.5724,29.9764 C135.1534,29.9764 135.4424,29.6864 135.4424,29.1064 C135.4424,28.5324 135.1534,28.2444 134.5724,28.2444 L134.2074,28.2444 L134.2074,29.9764 L134.5724,29.9764 Z M133.2414,27.5024 L134.7544,27.5024 C135.2954,27.5024 135.7064,27.6434 135.9874,27.9254 C136.2714,28.2084 136.4114,28.6014 136.4114,29.1064 C136.4114,29.6104 136.2714,30.0064 135.9874,30.2914 C135.7064,30.5764 135.2954,30.7194 134.7544,30.7194 L134.2074,30.7194 L134.2074,32.7854 L133.2414,32.7854 L133.2414,27.5024 Z" id="Fill-78" fill="#181818" mask="url(#mask-2)"></path>
                    <path d="M137.109,29.5311 C137.109,29.2571 137.098,29.0441 137.078,28.8861 L137.925,28.8861 C137.925,28.9471 137.93,29.0411 137.942,29.1671 C137.951,29.3591 137.954,29.5031 137.954,29.5991 L137.971,29.5991 C138.046,29.3971 138.165,29.2181 138.328,29.0611 C138.488,28.9051 138.7,28.8271 138.963,28.8271 C138.987,28.8271 139.023,28.8311 139.068,28.8421 C139.099,28.8461 139.116,28.8501 139.121,28.8501 L139.121,29.7271 C139.031,29.7021 138.943,29.6891 138.857,29.6891 C138.634,29.6891 138.443,29.7661 138.285,29.9211 C138.126,30.0751 138.046,30.3181 138.046,30.6511 L138.046,32.7851 L137.109,32.7851 L137.109,29.5311 Z" id="Fill-79" fill="#181818" mask="url(#mask-2)"></path>
                    <path d="M140.5631,31.3319 C140.5851,31.4889 140.6251,31.6299 140.6801,31.7599 C140.7351,31.8889 140.8121,31.9909 140.9111,32.0669 C141.0081,32.1419 141.1311,32.1799 141.2801,32.1799 C141.4251,32.1799 141.5471,32.1419 141.6461,32.0669 C141.7451,31.9909 141.8181,31.8899 141.8721,31.7629 C141.9241,31.6379 141.9631,31.4949 141.9861,31.3349 C142.0091,31.1759 142.0201,31.0089 142.0201,30.8319 C142.0201,30.6559 142.0091,30.4899 141.9861,30.3319 C141.9631,30.1759 141.9241,30.0349 141.8691,29.9089 C141.8121,29.7829 141.7351,29.6829 141.6421,29.6059 C141.5461,29.5309 141.4251,29.4929 141.2801,29.4929 C141.1311,29.4929 141.0081,29.5309 140.9111,29.6059 C140.8121,29.6829 140.7351,29.7829 140.6801,29.9089 C140.6251,30.0349 140.5851,30.1759 140.5631,30.3319 C140.5401,30.4899 140.5281,30.6559 140.5281,30.8319 C140.5281,31.0089 140.5401,31.1759 140.5631,31.3319 M139.7081,29.8709 C139.8081,29.6089 139.9381,29.4019 140.1051,29.2499 C140.2711,29.0989 140.4541,28.9909 140.6541,28.9249 C140.8531,28.8589 141.0621,28.8279 141.2801,28.8279 C141.4951,28.8279 141.7031,28.8589 141.9021,28.9249 C142.1011,28.9909 142.2821,29.0989 142.4461,29.2499 C142.6121,29.4019 142.7431,29.6089 142.8411,29.8709 C142.9391,30.1349 142.9881,30.4549 142.9881,30.8319 C142.9881,31.2199 142.9391,31.5489 142.8411,31.8159 C142.7431,32.0829 142.6121,32.2919 142.4461,32.4409 C142.2821,32.5899 142.1021,32.6939 141.9071,32.7549 C141.7101,32.8149 141.5001,32.8459 141.2801,32.8459 C141.0561,32.8459 140.8471,32.8149 140.6501,32.7549 C140.4531,32.6939 140.2711,32.5879 140.1051,32.4369 C139.9381,32.2859 139.8081,32.0769 139.7081,31.8119 C139.6081,31.5479 139.5611,31.2199 139.5611,30.8319 C139.5611,30.4549 139.6081,30.1349 139.7081,29.8709" id="Fill-80" fill="#181818" mask="url(#mask-2)"></path>
                    <path d="M143.7076,29.5223 C143.7076,29.2903 143.6956,29.0793 143.6766,28.8863 L144.6156,28.8863 C144.6156,28.9423 144.6206,29.0233 144.6296,29.1303 C144.6406,29.2963 144.6466,29.4193 144.6466,29.5003 L144.6606,29.5003 C144.7476,29.3133 144.8716,29.1553 145.0356,29.0233 C145.1986,28.8913 145.4016,28.8273 145.6436,28.8273 C145.7946,28.8273 145.9266,28.8463 146.0416,28.8863 C146.1556,28.9273 146.2486,28.9803 146.3226,29.0423 C146.3946,29.1063 146.4536,29.1693 146.4996,29.2313 C146.5456,29.2943 146.5886,29.3653 146.6296,29.4393 L146.6296,29.4473 C146.7546,29.2603 146.8976,29.1103 147.0576,28.9973 C147.2146,28.8833 147.4196,28.8273 147.6736,28.8273 C148.0766,28.8273 148.3636,28.9593 148.5366,29.2253 C148.7076,29.4883 148.7946,29.8743 148.7946,30.3773 L148.7946,32.7853 L147.8536,32.7853 L147.8536,30.3253 C147.8536,29.8393 147.6876,29.5993 147.3556,29.5993 C147.1566,29.5993 147.0036,29.6793 146.8896,29.8393 C146.7766,30.0013 146.7206,30.1963 146.7206,30.4233 L146.7206,32.7853 L145.7806,32.7853 L145.7806,30.3253 C145.7806,29.8393 145.6136,29.5993 145.2826,29.5993 C145.0836,29.5993 144.9296,29.6793 144.8156,29.8393 C144.7016,30.0013 144.6466,30.1963 144.6466,30.4233 L144.6466,32.7853 L143.7076,32.7853 L143.7076,29.5223 Z" id="Fill-81" fill="#181818" mask="url(#mask-2)"></path>
                    <path d="M150.5148,31.3319 C150.5378,31.4889 150.5768,31.6299 150.6328,31.7599 C150.6888,31.8889 150.7648,31.9909 150.8648,32.0669 C150.9618,32.1419 151.0828,32.1799 151.2318,32.1799 C151.3768,32.1799 151.4978,32.1419 151.5978,32.0669 C151.6968,31.9909 151.7698,31.8899 151.8238,31.7629 C151.8778,31.6379 151.9148,31.4949 151.9378,31.3349 C151.9608,31.1759 151.9718,31.0089 151.9718,30.8319 C151.9718,30.6559 151.9608,30.4899 151.9378,30.3319 C151.9148,30.1759 151.8758,30.0349 151.8208,29.9089 C151.7648,29.7829 151.6888,29.6829 151.5938,29.6059 C151.4968,29.5309 151.3768,29.4929 151.2318,29.4929 C151.0828,29.4929 150.9618,29.5309 150.8648,29.6059 C150.7648,29.6829 150.6888,29.7829 150.6328,29.9089 C150.5768,30.0349 150.5378,30.1759 150.5148,30.3319 C150.4928,30.4899 150.4798,30.6559 150.4798,30.8319 C150.4798,31.0089 150.4928,31.1759 150.5148,31.3319 M149.6608,29.8709 C149.7588,29.6089 149.8898,29.4019 150.0568,29.2499 C150.2248,29.0989 150.4058,28.9909 150.6068,28.9249 C150.8048,28.8589 151.0138,28.8279 151.2318,28.8279 C151.4468,28.8279 151.6548,28.8589 151.8538,28.9249 C152.0528,28.9909 152.2358,29.0989 152.3998,29.2499 C152.5638,29.4019 152.6948,29.6089 152.7928,29.8709 C152.8908,30.1349 152.9398,30.4549 152.9398,30.8319 C152.9398,31.2199 152.8908,31.5489 152.7928,31.8159 C152.6948,32.0829 152.5638,32.2919 152.3998,32.4409 C152.2358,32.5899 152.0558,32.6939 151.8578,32.7549 C151.6628,32.8149 151.4518,32.8459 151.2318,32.8459 C151.0088,32.8459 150.7988,32.8149 150.6038,32.7549 C150.4048,32.6939 150.2248,32.5879 150.0568,32.4369 C149.8898,32.2859 149.7588,32.0769 149.6608,31.8119 C149.5618,31.5479 149.5128,31.2199 149.5128,30.8319 C149.5128,30.4549 149.5618,30.1349 149.6608,29.8709" id="Fill-82" fill="#181818" mask="url(#mask-2)"></path>
                    <path d="M154.0289,28.0838 L154.9689,27.7968 L154.9689,28.8868 L155.7479,28.8868 L155.7479,29.5768 L154.9689,29.5768 L154.9689,31.5968 C154.9689,31.7928 155.0039,31.9318 155.0739,32.0138 C155.1449,32.0938 155.2519,32.1348 155.3919,32.1348 C155.5289,32.1348 155.6469,32.1058 155.7479,32.0508 L155.7479,32.7148 C155.5659,32.8018 155.3559,32.8458 155.1189,32.8458 C154.7619,32.8458 154.4909,32.7558 154.3069,32.5778 C154.1219,32.3978 154.0289,32.1078 154.0289,31.7088 L154.0289,29.5768 L153.4089,29.5768 L153.4089,28.8868 L154.0289,28.8868 L154.0289,28.0838 Z" id="Fill-83" fill="#181818" mask="url(#mask-2)"></path>
                    <path d="M156.436,32.785 L157.376,32.785 L157.376,28.887 L156.436,28.887 L156.436,32.785 Z M156.422,28.153 L157.392,28.153 L157.392,27.23 L156.422,27.23 L156.422,28.153 Z" id="Fill-84" fill="#181818" mask="url(#mask-2)"></path>
                    <path d="M159.2106,31.3319 C159.2346,31.4889 159.2726,31.6299 159.3296,31.7599 C159.3846,31.8889 159.4596,31.9909 159.5596,32.0669 C159.6576,32.1419 159.7806,32.1799 159.9256,32.1799 C160.0716,32.1799 160.1946,32.1419 160.2936,32.0669 C160.3916,31.9909 160.4666,31.8899 160.5206,31.7629 C160.5726,31.6379 160.6116,31.4949 160.6346,31.3349 C160.6576,31.1759 160.6686,31.0089 160.6686,30.8319 C160.6686,30.6559 160.6576,30.4899 160.6346,30.3319 C160.6116,30.1759 160.5706,30.0349 160.5176,29.9089 C160.4606,29.7829 160.3856,29.6829 160.2906,29.6059 C160.1936,29.5309 160.0716,29.4929 159.9256,29.4929 C159.7806,29.4929 159.6576,29.5309 159.5596,29.6059 C159.4596,29.6829 159.3846,29.7829 159.3296,29.9089 C159.2726,30.0349 159.2346,30.1759 159.2106,30.3319 C159.1876,30.4899 159.1766,30.6559 159.1766,30.8319 C159.1766,31.0089 159.1876,31.1759 159.2106,31.3319 M158.3566,29.8709 C158.4536,29.6089 158.5856,29.4019 158.7526,29.2499 C158.9196,29.0989 159.1026,28.9909 159.3026,28.9249 C159.5016,28.8589 159.7096,28.8279 159.9256,28.8279 C160.1416,28.8279 160.3506,28.8589 160.5496,28.9249 C160.7496,28.9909 160.9306,29.0989 161.0946,29.2499 C161.2596,29.4019 161.3896,29.6089 161.4886,29.8709 C161.5866,30.1349 161.6366,30.4549 161.6366,30.8319 C161.6366,31.2199 161.5866,31.5489 161.4886,31.8159 C161.3896,32.0829 161.2596,32.2919 161.0946,32.4409 C160.9306,32.5899 160.7526,32.6939 160.5546,32.7549 C160.3576,32.8149 160.1476,32.8459 159.9256,32.8459 C159.7056,32.8459 159.4946,32.8149 159.2976,32.7549 C159.1016,32.6939 158.9196,32.5879 158.7526,32.4369 C158.5856,32.2859 158.4536,32.0769 158.3566,31.8119 C158.2586,31.5479 158.2076,31.2199 158.2076,30.8319 C158.2076,30.4549 158.2586,30.1349 158.3566,29.8709" id="Fill-85" fill="#181818" mask="url(#mask-2)"></path>
                    <path d="M162.3781,29.5311 C162.3781,29.2571 162.3691,29.0441 162.3471,28.8861 L163.2251,28.8861 C163.2251,28.9371 163.2291,29.0171 163.2411,29.1221 C163.2501,29.2831 163.2541,29.4041 163.2541,29.4841 L163.2791,29.4841 L163.2711,29.4841 C163.3161,29.4091 163.3641,29.3361 163.4191,29.2661 C163.4711,29.1951 163.5381,29.1261 163.6201,29.0571 C163.7001,28.9891 163.7971,28.9331 163.9141,28.8901 C164.0321,28.8481 164.1611,28.8271 164.3071,28.8271 C164.5241,28.8271 164.7071,28.8641 164.8561,28.9361 C165.0041,29.0101 165.1231,29.1121 165.2121,29.2431 C165.2981,29.3751 165.3641,29.5271 165.4011,29.7001 C165.4401,29.8741 165.4581,30.0661 165.4581,30.2711 L165.4581,32.7851 L164.5201,32.7851 L164.5201,30.4451 C164.5201,30.1431 164.4771,29.9271 164.3971,29.7961 C164.3121,29.6651 164.1741,29.5991 163.9811,29.5991 C163.7491,29.5991 163.5821,29.6831 163.4761,29.8521 C163.3711,30.0211 163.3161,30.2421 163.3161,30.5141 L163.3161,32.7851 L162.3781,32.7851 L162.3781,29.5311 Z" id="Fill-86" fill="#181818" mask="url(#mask-2)"></path>
                    <path d="M170.4391,30.7728 L169.7721,28.3048 L169.7581,28.3048 L169.0311,30.7728 L170.4391,30.7728 Z M170.6421,31.5128 L168.8271,31.5128 L168.4481,32.7848 L167.4801,32.7848 L169.2501,27.5028 L170.3081,27.5028 L172.0121,32.7848 L171.0131,32.7848 L170.6421,31.5128 Z" id="Fill-87" fill="#181818" mask="url(#mask-2)"></path>
                    <path d="M173.5216,31.7665 C173.6416,31.9875 173.7856,32.0965 173.9566,32.0965 C174.2496,32.0965 174.4616,31.9905 174.5886,31.7785 C174.7166,31.5665 174.7826,31.2365 174.7826,30.7865 C174.7826,30.3875 174.7146,30.0815 174.5776,29.8635 C174.4416,29.6465 174.2576,29.5375 174.0226,29.5375 C173.7876,29.5435 173.6146,29.6495 173.5066,29.8605 C173.3976,30.0685 173.3436,30.3815 173.3436,30.7955 C173.3436,31.2245 173.4046,31.5475 173.5216,31.7665 L173.5216,31.7665 Z M172.6016,33.3905 C172.7646,33.4755 172.9406,33.5525 173.1346,33.6205 C173.3296,33.6895 173.5356,33.7235 173.7526,33.7235 C173.9646,33.7235 174.1406,33.6895 174.2786,33.6205 C174.4176,33.5525 174.5216,33.4625 174.5936,33.3495 C174.6646,33.2355 174.7126,33.1075 174.7406,32.9665 C174.7686,32.8255 174.7826,32.6695 174.7826,32.4965 L174.7826,32.1255 L174.7676,32.1255 C174.6706,32.3175 174.5426,32.4755 174.3846,32.5995 C174.2256,32.7245 174.0106,32.7855 173.7376,32.7855 C173.5856,32.7855 173.4326,32.7545 173.2756,32.6935 C173.1216,32.6335 172.9726,32.5315 172.8366,32.3885 C172.7006,32.2435 172.5906,32.0425 172.5046,31.7865 C172.4176,31.5295 172.3746,31.2155 172.3746,30.8475 C172.3746,30.5705 172.4026,30.3105 172.4546,30.0685 C172.5066,29.8255 172.5906,29.6105 172.7056,29.4245 C172.8176,29.2385 172.9636,29.0915 173.1436,28.9865 C173.3236,28.8785 173.5356,28.8275 173.7826,28.8275 C174.0406,28.8275 174.2456,28.8855 174.3986,29.0045 C174.5546,29.1235 174.6916,29.2855 174.8126,29.4925 L174.8426,29.4925 C174.8426,29.4015 174.8486,29.2815 174.8576,29.1305 C174.8686,29.0025 174.8736,28.9235 174.8736,28.8865 L175.7216,28.8865 C175.7006,29.1605 175.6916,29.3655 175.6916,29.4995 L175.6916,32.3765 C175.6916,32.6995 175.6616,32.9855 175.6056,33.2355 C175.5496,33.4845 175.4556,33.7025 175.3186,33.8865 C175.1836,34.0695 174.9976,34.2125 174.7636,34.3135 C174.5286,34.4135 174.2386,34.4655 173.8896,34.4655 C173.6206,34.4655 173.3746,34.4395 173.1466,34.3895 C172.9206,34.3395 172.7216,34.2835 172.5476,34.2235 L172.6016,33.3905 Z" id="Fill-88" fill="#181818" mask="url(#mask-2)"></path>
                    <path d="M178.6959,30.4994 C178.6959,29.8084 178.4779,29.4624 178.0439,29.4624 C177.8119,29.4624 177.6369,29.5644 177.5219,29.7654 C177.4059,29.9674 177.3469,30.2114 177.3469,30.4994 L178.6959,30.4994 Z M179.4069,32.5964 C179.2509,32.6614 179.0769,32.7194 178.8879,32.7704 C178.6989,32.8204 178.4839,32.8454 178.2409,32.8454 C177.9379,32.8454 177.6749,32.7954 177.4419,32.6934 C177.2119,32.5934 177.0239,32.4534 176.8749,32.2704 C176.7259,32.0884 176.6169,31.8804 176.5449,31.6494 C176.4739,31.4174 176.4379,31.1654 176.4379,30.8924 C176.4379,30.6024 176.4769,30.3284 176.5499,30.0794 C176.6229,29.8294 176.7309,29.6104 176.8699,29.4204 C177.0129,29.2314 177.1819,29.0854 177.3819,28.9834 C177.5809,28.8774 177.7999,28.8274 178.0439,28.8274 C178.2679,28.8274 178.4719,28.8614 178.6559,28.9334 C178.8439,29.0024 179.0079,29.1194 179.1479,29.2814 C179.2889,29.4424 179.4009,29.6584 179.4819,29.9284 C179.5639,30.1974 179.6019,30.5234 179.6019,30.9084 L179.6019,31.0894 L177.3469,31.0894 C177.3469,31.4374 177.4249,31.7034 177.5799,31.8844 C177.7319,32.0664 177.9859,32.1574 178.3399,32.1574 C178.5959,32.1574 178.8019,32.1294 178.9519,32.0734 C179.1019,32.0174 179.2389,31.9434 179.3629,31.8534 L179.4069,32.5964 Z" id="Fill-89" fill="#181818" mask="url(#mask-2)"></path>
                    <path d="M180.3287,29.5311 C180.3287,29.2571 180.3207,29.0441 180.2987,28.8861 L181.1767,28.8861 C181.1767,28.9371 181.1817,29.0171 181.1927,29.1221 C181.2017,29.2831 181.2077,29.4041 181.2077,29.4841 L181.2317,29.4841 L181.2237,29.4841 C181.2667,29.4091 181.3157,29.3361 181.3697,29.2661 C181.4217,29.1951 181.4907,29.1261 181.5707,29.0571 C181.6507,28.9891 181.7477,28.9331 181.8667,28.8901 C181.9817,28.8481 182.1117,28.8271 182.2577,28.8271 C182.4757,28.8271 182.6607,28.8641 182.8087,28.9361 C182.9577,29.0101 183.0757,29.1121 183.1637,29.2431 C183.2517,29.3751 183.3137,29.5271 183.3517,29.7001 C183.3917,29.8741 183.4097,30.0661 183.4097,30.2711 L183.4097,32.7851 L182.4727,32.7851 L182.4727,30.4451 C182.4727,30.1431 182.4297,29.9271 182.3467,29.7961 C182.2637,29.6651 182.1247,29.5991 181.9337,29.5991 C181.7007,29.5991 181.5337,29.6831 181.4267,29.8521 C181.3217,30.0211 181.2667,30.2421 181.2667,30.5141 L181.2667,32.7851 L180.3287,32.7851 L180.3287,29.5311 Z" id="Fill-90" fill="#181818" mask="url(#mask-2)"></path>
                    <path d="M186.9059,32.6859 C186.7859,32.7319 186.6459,32.7699 186.4879,32.7989 C186.3269,32.8309 186.1599,32.8459 185.9829,32.8459 C185.6709,32.8459 185.3969,32.7929 185.1659,32.6899 C184.9349,32.5869 184.7429,32.4449 184.5899,32.2629 C184.4389,32.0809 184.3279,31.8689 184.2579,31.6259 C184.1869,31.3859 184.1519,31.1229 184.1519,30.8399 C184.1519,30.5579 184.1889,30.2939 184.2649,30.0479 C184.3399,29.8049 184.4549,29.5909 184.6099,29.4089 C184.7629,29.2279 184.9599,29.0849 185.2009,28.9829 C185.4399,28.8779 185.7189,28.8279 186.0369,28.8279 C186.1739,28.8279 186.3159,28.8439 186.4689,28.8759 C186.6249,28.9079 186.7539,28.9459 186.8529,28.9859 L186.7989,29.7269 C186.6889,29.6709 186.5809,29.6269 186.4749,29.5909 C186.3669,29.5549 186.2569,29.5379 186.1419,29.5379 C185.7949,29.5379 185.5349,29.6499 185.3699,29.8709 C185.2029,30.0939 185.1209,30.4189 185.1209,30.8469 C185.1209,31.2269 185.2129,31.5349 185.3969,31.7749 C185.5809,32.0139 185.8449,32.1349 186.1879,32.1349 C186.2919,32.1349 186.4129,32.1139 186.5479,32.0729 C186.6789,32.0339 186.7819,31.9909 186.8529,31.9439 L186.9059,32.6859 Z" id="Fill-91" fill="#181818" mask="url(#mask-2)"></path>
                    <path d="M188.8502,31.8319 L188.8662,31.8319 L189.6152,28.8869 L190.5242,28.8869 L189.1002,33.5259 C189.0122,33.8199 188.8762,34.0489 188.6992,34.2149 C188.5242,34.3819 188.2862,34.4649 187.9892,34.4649 C187.8732,34.4649 187.7652,34.4559 187.6652,34.4389 C187.5702,34.4199 187.4762,34.3969 187.3902,34.3679 L187.4442,33.6489 C187.5852,33.6969 187.7052,33.7239 187.8002,33.7239 C187.9362,33.7239 188.0392,33.6809 188.1182,33.5959 C188.1932,33.5089 188.2602,33.3629 188.3212,33.1569 L188.3902,32.8229 L187.0952,28.8869 L188.0642,28.8869 L188.8502,31.8319 Z" id="Fill-92" fill="#181818" mask="url(#mask-2)"></path>
                    <path d="M20.1256,25.3378 C22.2836,27.3148 24.0936,29.4738 23.4356,33.1548 C22.7646,36.8798 19.3316,38.7548 17.7356,38.1628 C17.1056,37.9288 16.6026,37.2638 16.9826,36.2778 C17.6846,34.4818 19.5676,33.2278 21.4316,32.6668 C22.5236,32.3328 22.6626,31.8128 22.1086,31.3618 C21.6276,30.9658 20.6946,30.6298 19.4746,30.6068 C16.2316,30.5428 12.8576,33.7058 13.8756,37.2328 C14.5016,39.4018 16.8436,40.9128 19.6786,40.9958 C23.0196,41.1038 26.8836,39.0288 27.7816,34.7028 C28.7796,29.8698 25.5026,25.6838 21.6376,24.2928 C19.1516,23.4068 19.3076,24.5758 20.1256,25.3378" id="Fill-93" fill="#181818" mask="url(#mask-2)"></path>
                    <path d="M14.8453,1.5838 C16.0953,1.7258 19.7403,8.0458 20.5943,8.0558 C21.4503,8.0648 28.1753,1.0308 29.4173,1.1248 C30.9143,1.2358 29.5293,4.0708 27.5333,7.6088 C26.4583,9.5268 25.8473,10.4118 25.8473,11.2208 C25.8473,12.1578 29.6653,16.7348 28.9073,17.5868 C28.3343,18.2408 23.6703,15.7308 22.5543,15.1798 C21.7623,14.7938 21.7123,15.3598 21.7123,16.1498 C21.7123,16.7348 22.2913,20.5338 21.1223,20.4048 C18.0653,20.0598 12.0183,1.2458 14.8453,1.5838" id="Fill-94" fill="#181818" mask="url(#mask-2)"></path>
                    <path d="M38.5192,29.8915 C39.3552,32.1375 39.1612,34.5685 39.7002,35.7975 C40.2252,36.9915 41.5672,37.3535 42.5062,36.6355 C43.5652,35.8115 43.5652,32.9325 43.3292,31.2915 C43.1072,29.8305 42.1082,25.2245 39.8142,24.3575 C38.3732,23.8135 36.7482,24.6445 36.5012,25.6495 C36.2552,26.6495 34.4362,30.5835 33.6842,30.2845 C33.3992,30.1705 32.7032,27.7985 32.3862,26.9335 C32.0392,26.0115 30.7522,21.7035 29.8212,21.6285 C29.1092,21.5715 28.9232,23.8335 29.0782,25.7725 C29.2242,27.4535 29.8012,33.0425 31.5152,34.0645 C33.2232,35.0865 36.8652,33.1435 38.5192,29.8915" id="Fill-95" fill="#181818" mask="url(#mask-2)"></path>
                    <path d="M15.7721,24.909 C17.1491,25.268 17.7851,26.004 17.7641,27.072 C17.7361,28.18 16.7141,29.059 15.2291,28.902 C13.4521,28.71 7.0111,26.492 3.8141,22.21 C2.5021,20.454 3.1111,18.86 4.6751,17.806 C7.8421,15.681 15.0021,14.129 15.7721,15.672 C16.2011,16.537 13.5741,17.38 11.3881,18.307 C9.3521,19.164 7.4061,20.118 7.3761,20.734 C7.3451,21.485 11.6031,23.828 15.7721,24.909" id="Fill-96" fill="#181818" mask="url(#mask-2)"></path>
                    <path d="M14.7111,24.746 C14.8041,23.089 14.4931,18.936 13.7361,18.602 C13.1031,18.323 12.2591,20.688 11.5641,23.85" id="Fill-97" fill="#181818" mask="url(#mask-2)"></path>
                    <path d="M22.8243,3.1234 C22.3173,3.9384 21.2293,4.1824 20.4143,3.6754 C19.6003,3.1674 19.3503,2.0884 19.8573,1.2744 C20.3713,0.4564 21.4503,0.2084 22.2643,0.7194 C23.0803,1.2274 23.3343,2.3044 22.8243,3.1234" id="Fill-98" fill="#181818" mask="url(#mask-2)"></path>
                    <path d="M46.4288,9.3617 C46.2048,10.2967 45.2608,10.8807 44.3188,10.6527 C43.3868,10.4297 42.8058,9.4917 43.0318,8.5487 C43.2538,7.6137 44.1968,7.0367 45.1318,7.2657 C46.0718,7.4857 46.6498,8.4247 46.4288,9.3617" id="Fill-99" fill="#181818" mask="url(#mask-2)"></path>
                    <path d="M3.2042,20.4359 C2.6762,21.2449 1.5952,21.4689 0.7892,20.9429 C-0.0118,20.4189 -0.2438,19.3359 0.2812,18.5269 C0.8082,17.7199 1.8922,17.4959 2.7002,18.0229 C3.5032,18.5489 3.7312,19.6259 3.2042,20.4359" id="Fill-100" fill="#181818" mask="url(#mask-2)"></path>
                    <path d="M31.0909,19.7884 C31.5669,20.5934 32.2469,21.0254 33.3399,21.4324 C34.8239,21.9874 39.3199,21.8854 42.3179,18.8394 C45.0559,16.0624 45.3839,11.8794 43.0479,9.4514 C40.2249,6.5094 34.7139,6.6674 31.7599,10.3654 C30.1239,12.4074 30.3419,14.6344 31.4639,15.7214 C32.1899,16.4224 33.2899,16.8114 34.3769,16.8574 C35.2989,16.8994 35.2819,16.6504 34.8799,16.2214 C33.8889,15.1624 33.9349,13.8574 34.5239,12.7604 C35.8719,10.2444 38.9809,9.7174 40.3319,11.2194 C41.7189,12.7684 40.6929,15.4904 38.0129,17.0024 C35.7479,18.2874 33.1499,17.8814 31.3549,17.1494 C30.6919,18.1044 30.7749,19.2574 31.0909,19.7884" id="Fill-101" fill="#181818" mask="url(#mask-2)"></path>
                </g>
            </g>
        </g>
    </g>
</svg>