<?xml version="1.0" encoding="UTF-8"?>
<svg width="17px" height="20px" viewBox="0 0 17 20" version="1.1" xmlns="http://www.w3.org/2000/svg" xmlns:xlink="http://www.w3.org/1999/xlink">
    <!-- Generator: Sketch 59.1 (86144) - https://sketch.com -->
    <title>Shape</title>
    <desc>Created with Sketch.</desc>
    <g id="mobile" stroke="none" stroke-width="1" fill="none" fill-rule="evenodd">
        <g id="Artboard-Copy" transform="translate(-302.000000, -19.000000)" fill="#000000" fill-rule="nonzero">
            <g id="notification" transform="translate(302.000000, 19.000000)">
                <path d="M16.649028,15.6648255 C16.5858755,15.627264 16.1105749,15.3221972 15.6346448,14.3993076 C14.7606237,12.7045432 14.577167,10.3171406 14.577167,8.61280325 C14.577167,8.60538322 14.5769991,8.59804009 14.5767054,8.59065851 C14.5671801,6.33816201 13.0950363,4.39642229 10.9883891,3.52520374 L10.9883891,2.1927903 C10.9883891,0.983672286 9.91651836,0 8.59900361,0 L8.40098616,0 C7.08347141,0 6.01160069,0.983672286 6.01160069,2.1927903 L6.01160069,3.52512685 C3.89790386,4.39915193 2.42282277,6.35081065 2.42282277,8.61280325 C2.42282277,10.3171406 2.23936604,12.7045047 1.36534493,14.3993076 C0.889456825,15.3221587 0.414156183,15.6272255 0.350961801,15.6648255 C0.0848404378,15.7776637 -0.0463739269,16.0383257 0.0148482535,16.3024862 C0.0766578983,16.5692611 0.348821752,16.7531854 0.646036765,16.7531854 L5.25960432,16.7531854 C5.28536883,18.3733267 6.72860096,19.6842105 8.50001586,19.6842105 C10.2714308,19.6842105 11.7146629,18.3733267 11.7404274,16.7531854 L16.353995,16.7531854 C16.651168,16.7531854 16.9233738,16.5692611 16.9851835,16.3024862 C17.0463217,16.0383257 16.9151493,15.7776252 16.649028,15.6648255 Z M7.27049489,2.1927903 C7.27049489,1.62067948 7.77764449,1.15525555 8.40102812,1.15525555 L8.59904557,1.15525555 C9.2224292,1.15525555 9.7295788,1.62067948 9.7295788,2.1927903 L9.7295788,3.15074239 C9.33228504,3.07550411 8.92101801,3.03590502 8.49984802,3.03590502 C8.07880391,3.03590502 7.66766277,3.07546567 7.27053685,3.15062706 L7.27053685,2.1927903 L7.27049489,2.1927903 Z M8.50001586,18.528955 C7.42273208,18.528955 6.54401126,17.7363195 6.51845656,16.7532239 L10.4815332,16.7532239 C10.4560205,17.736281 9.57729965,18.528955 8.50001586,18.528955 L8.50001586,18.528955 Z M11.034505,15.5978914 C11.0343791,15.5978914 2.08049889,15.5978914 2.08049889,15.5978914 C2.18938961,15.4424169 2.30021056,15.266374 2.41036013,15.0674174 C3.25395898,13.5433135 3.68171697,11.3716684 3.68171697,8.61280325 C3.68171697,6.17469079 5.8431243,4.19116057 8.49980606,4.19116057 C11.1564878,4.19116057 13.3178951,6.17469079 13.3178951,8.61472553 C13.3178951,8.62183799 13.318021,8.62891201 13.3183148,8.63598602 C13.3207066,11.3837788 13.7484226,13.5476194 14.5896716,15.0674174 C14.6998212,15.2664124 14.8106841,15.4424169 14.9195328,15.5978914 L11.034505,15.5978914 Z" id="Shape"></path>
            </g>
        </g>
    </g>
</svg>