<?xml version="1.0" encoding="UTF-8"?>
<svg width="15px" height="15px" viewBox="0 0 15 15" version="1.1" xmlns="http://www.w3.org/2000/svg" xmlns:xlink="http://www.w3.org/1999/xlink">
    <!-- Generator: Sketch 59.1 (86144) - https://sketch.com -->
    <title>calendar</title>
    <desc>Created with Sketch.</desc>
    <g id="Page-1" stroke="none" stroke-width="1" fill="none" fill-rule="evenodd">
        <g id="Artboard-Copy-16" transform="translate(-595.000000, -406.000000)" fill="#181818" fill-rule="nonzero">
            <g id="calendar" transform="translate(595.000000, 406.000000)">
                <path d="M13.3928583,1.60714174 L11.7857165,1.60714174 L11.7857165,0.535724375 C11.7857165,0.23984707 11.5458695,0 11.2499922,0 C10.9541148,0 10.7142678,0.23984707 10.7142678,0.535724375 L10.7142678,1.60714174 L4.28570083,1.60714174 L4.28570083,0.535724375 C4.28570083,0.23984707 4.04585376,0 3.75000785,0 C3.45416193,0 3.21428347,0.23984707 3.21428347,0.535724375 L3.21428347,1.60714174 L1.60714174,1.60714174 C0.719541211,1.60714174 0,2.32668295 0,3.21428347 L0,13.3928583 C0,14.2804588 0.719541211,15 1.60714174,15 L13.3928583,15 C14.2804588,15 15,14.2804588 15,13.3928583 L15,3.21428347 C15,2.32668295 14.2804588,1.60714174 13.3928583,1.60714174 Z M13.9285512,13.3928583 C13.9285512,13.6887356 13.6887042,13.9285826 13.3928269,13.9285826 L1.60714174,13.9285826 C1.31126443,13.9285826 1.07141736,13.6887356 1.07141736,13.3928583 L1.07141736,6.42856694 L13.9285512,6.42856694 L13.9285512,13.3928583 Z M13.928614,5.35714958 L1.07141736,5.35714958 L1.07141736,3.21428347 C1.07141736,2.91840617 1.31126443,2.6785591 1.60714174,2.6785591 L3.21428347,2.6785591 L3.21428347,3.74997646 C3.21428347,4.04585376 3.45413054,4.28570083 3.75000785,4.28570083 C4.04588515,4.28570083 4.28573222,4.04585376 4.28573222,3.74997646 L4.28573222,2.6785591 L10.7142992,2.6785591 L10.7142992,3.74997646 C10.7142992,4.04585376 10.9541462,4.28570083 11.2500235,4.28570083 C11.5459008,4.28570083 11.7857479,4.04585376 11.7857479,3.74997646 L11.7857479,2.6785591 L13.3928897,2.6785591 C13.688767,2.6785591 13.928614,2.91840617 13.928614,3.21428347 L13.928614,5.35714958 L13.928614,5.35714958 Z" id="Shape"></path>
                <path d="M4.21874313,8.4375 L3.28125687,8.4375 C3.02236531,8.4375 2.8125,8.64736223 2.8125,8.90625 C2.8125,9.16513777 3.02236531,9.375 3.28125687,9.375 L4.21874313,9.375 C4.47763469,9.375 4.6875,9.16513777 4.6875,8.90625 C4.6875,8.64736223 4.47763469,8.4375 4.21874313,8.4375 Z" id="Path"></path>
                <path d="M7.96874313,8.4375 L7.03125687,8.4375 C6.77236531,8.4375 6.5625,8.64736223 6.5625,8.90625 C6.5625,9.16513777 6.77236531,9.375 7.03125687,9.375 L7.96874313,9.375 C8.22763469,9.375 8.4375,9.16513777 8.4375,8.90625 C8.4375,8.64736223 8.22763469,8.4375 7.96874313,8.4375 Z" id="Path"></path>
                <path d="M11.7187431,8.4375 L10.7812569,8.4375 C10.5223653,8.4375 10.3125,8.64736223 10.3125,8.90625 C10.3125,9.16513777 10.5223653,9.375 10.7812569,9.375 L11.7187431,9.375 C11.9776347,9.375 12.1875,9.16513777 12.1875,8.90625 C12.1874725,8.64736223 11.9776072,8.4375 11.7187431,8.4375 Z" id="Path"></path>
                <path d="M4.21874313,11.25 L3.28125687,11.25 C3.02236531,11.25 2.8125,11.4598622 2.8125,11.71875 C2.8125,11.9776378 3.02236531,12.1875 3.28125687,12.1875 L4.21874313,12.1875 C4.47763469,12.1875 4.6875,11.9776378 4.6875,11.71875 C4.6875,11.4598622 4.47763469,11.25 4.21874313,11.25 Z" id="Path"></path>
                <path d="M7.96874313,11.25 L7.03125687,11.25 C6.77236531,11.25 6.5625,11.4598622 6.5625,11.71875 C6.5625,11.9776378 6.77236531,12.1875 7.03125687,12.1875 L7.96874313,12.1875 C8.22763469,12.1875 8.4375,11.9776378 8.4375,11.71875 C8.4375,11.4598622 8.22763469,11.25 7.96874313,11.25 Z" id="Path"></path>
                <path d="M11.7187431,11.25 L10.7812569,11.25 C10.5223653,11.25 10.3125,11.4598622 10.3125,11.71875 C10.3125,11.9776378 10.5223653,12.1875 10.7812569,12.1875 L11.7187431,12.1875 C11.9776347,12.1875 12.1875,11.9776378 12.1875,11.71875 C12.1874725,11.4598622 11.9776072,11.25 11.7187431,11.25 Z" id="Path"></path>
            </g>
        </g>
    </g>
</svg>