<?xml version="1.0" encoding="UTF-8"?>
<svg width="40px" height="52px" viewBox="0 0 40 52" version="1.1" xmlns="http://www.w3.org/2000/svg" xmlns:xlink="http://www.w3.org/1999/xlink">
    <!-- Generator: Sketch 59.1 (86144) - https://sketch.com -->
    <title>ic_documents</title>
    <desc>Created with Sketch.</desc>
    <g id="Page-1" stroke="none" stroke-width="1" fill="none" fill-rule="evenodd">
        <g id="Artboard-Copy-28" transform="translate(-692.000000, -690.000000)" fill="#181818" fill-rule="nonzero">
            <g id="ic_documents" transform="translate(692.000000, 690.000000)">
                <path d="M7.75,10 L27.25,10 C27.6642136,10 28,9.77614237 28,9.5 C28,9.22385763 27.6642136,9 27.25,9 L7.75,9 C7.33578644,9 7,9.22385763 7,9.5 C7,9.77614237 7.33578644,10 7.75,10 Z" id="Path-Copy"></path>
                <path d="M35.4866392,4.49597103 L35.4866392,0.765439282 C35.4867558,0.562396619 35.4058606,0.367636696 35.2617745,0.224063829 C35.1176884,0.0804909613 34.9222322,0 34.7184636,0 L9.88005487,0 C9.83037143,0 9.78081597,0.00501978052 9.7321262,0.0148715146 C9.66169541,0.0289404376 9.59779333,0.0515867756 9.53766804,0.0822301604 C9.52449931,0.0887910674 9.5122085,0.0957893683 9.49903978,0.103225063 C9.43864366,0.136337356 9.38298387,0.177381821 9.33355281,0.225257934 L0.225624143,9.30336633 C0.177638128,9.35208343 0.136579344,9.40712402 0.103593964,9.46695161 C0.0956927298,9.48051082 0.0882304527,9.49363264 0.0812071331,9.50762924 C0.0511275193,9.56682199 0.0287079242,9.629579 0.0144855967,9.69439639 L0.0144855967,9.70445645 C0.00521173343,9.75084334 0,9.79800025 0,9.84529725 L0,46.7385898 C0,47.1613302 0.343923923,47.504029 0.768175583,47.504029 L4.51292181,47.504029 L4.51292181,51.2345607 C4.51280527,51.4376034 4.5937004,51.6323633 4.73778654,51.7759362 C4.88187267,51.919509 5.07732886,52 5.28109739,52 L39.2318244,52 C39.435593,52 39.6310491,51.919509 39.7751353,51.7759362 C39.9192214,51.6323633 40,51.4376034 40,51.2345607 L40,5.26141019 C40,5.05821577 39.9191013,4.86332299 39.7748252,4.71972489 C39.630549,4.5761268 39.4348671,4.49562247 39.2309465,4.49597103 L35.4866392,4.49597103 Z M9.11319616,2.61299071 L9.11319616,9.0798581 L2.621893,9.0798581 L9.11319616,2.61299071 Z M1.53547325,10.6107364 L9.88005487,10.6107364 C10.0838234,10.6108525 10.2792796,10.5302456 10.4233657,10.3866727 C10.5674519,10.2430998 10.648347,10.0483399 10.6482305,9.84529725 L10.6482305,8.65864786 L10.6495473,7.12776955 L10.6495473,1.53087844 L33.9502881,1.53087844 L33.9502881,45.9731507 L1.53547325,45.9731507 L1.53547325,10.6107364 Z M38.4627709,50.4691216 L6.04839506,50.4691216 L6.04839506,47.504029 L34.7184636,47.504029 C34.9222322,47.5041451 35.1176884,47.4235381 35.2617745,47.2799653 C35.4058606,47.1363924 35.4867558,46.9416325 35.4866392,46.7385898 L35.4866392,6.02684935 L38.4627709,6.02684935 L38.4627709,50.4691216 Z" id="Shape"></path>
                <path d="M7.75,20 L27.25,20 C27.6642136,20 28,19.7761424 28,19.5 C28,19.2238576 27.6642136,19 27.25,19 L7.75,19 C7.33578644,19 7,19.2238576 7,19.5 C7,19.7761424 7.33578644,20 7.75,20 L7.75,20 Z" id="Path"></path>
                <path d="M7.75,25 L27.25,25 C27.6642136,25 28,24.7761424 28,24.5 C28,24.2238576 27.6642136,24 27.25,24 L7.75,24 C7.33578644,24 7,24.2238576 7,24.5 C7,24.7761424 7.33578644,25 7.75,25 L7.75,25 Z" id="Path"></path>
                <path d="M7.75,31 L27.25,31 C27.6642136,31 28,30.7761424 28,30.5 C28,30.2238576 27.6642136,30 27.25,30 L7.75,30 C7.33578644,30 7,30.2238576 7,30.5 C7,30.7761424 7.33578644,31 7.75,31 Z" id="Path"></path>
                <path d="M7.75,36 L27.25,36 C27.6642136,36 28,35.7761424 28,35.5 C28,35.2238576 27.6642136,35 27.25,35 L7.75,35 C7.33578644,35 7,35.2238576 7,35.5 C7,35.7761424 7.33578644,36 7.75,36 Z" id="Path"></path>
                <path d="M7.75,41 L27.25,41 C27.6642136,41 28,40.7761424 28,40.5 C28,40.2238576 27.6642136,40 27.25,40 L7.75,40 C7.33578644,40 7,40.2238576 7,40.5 C7,40.7761424 7.33578644,41 7.75,41 Z" id="Path"></path>
                <path d="M7.75,15 L27.25,15 C27.6642136,15 28,14.7761424 28,14.5 C28,14.2238576 27.6642136,14 27.25,14 L7.75,14 C7.33578644,14 7,14.2238576 7,14.5 C7,14.7761424 7.33578644,15 7.75,15 Z" id="Path"></path>
            </g>
        </g>
    </g>
</svg>