<?xml version="1.0" encoding="UTF-8"?>
<svg width="19px" height="19px" viewBox="0 0 19 19" version="1.1" xmlns="http://www.w3.org/2000/svg" xmlns:xlink="http://www.w3.org/1999/xlink">
    <!-- Generator: Sketch 59.1 (86144) - https://sketch.com -->
    <title>Group 2</title>
    <desc>Created with Sketch.</desc>
    <g id="Page-1" stroke="none" stroke-width="1" fill="none" fill-rule="evenodd">
        <g id="Artboard-Copy-14" transform="translate(-787.000000, -710.000000)">
            <g id="Group-2" transform="translate(787.000000, 710.000000)">
                <g>
                    <circle id="Oval" fill="#383838" cx="9.5" cy="9.5" r="9.5"></circle>
                    <g id="Group" transform="translate(9.853553, 9.853553) rotate(45.000000) translate(-9.853553, -9.853553) translate(4.853553, 5.353553)"></g>
                    <rect id="Rectangle" fill="#FFFFFF" transform="translate(9.676777, 9.676777) rotate(45.000000) translate(-9.676777, -9.676777) " x="8.9267767" y="5.1767767" width="1.5" height="9" rx="0.75"></rect>
                    <path d="M9.6767767,5.1767767 C10.0909903,5.1767767 10.4267767,5.51256313 10.4267767,5.9267767 L10.4267767,13.4267767 C10.4267767,13.8409903 10.0909903,14.1767767 9.6767767,14.1767767 C9.26256313,14.1767767 8.9267767,13.8409903 8.9267767,13.4267767 L8.9267767,5.9267767 C8.9267767,5.51256313 9.26256313,5.1767767 9.6767767,5.1767767 Z" id="Rectangle" fill="#FFFFFF" transform="translate(9.676777, 9.676777) rotate(135.000000) translate(-9.676777, -9.676777) "></path>
                </g>
            </g>
        </g>
    </g>
</svg>