<svg xmlns="http://www.w3.org/2000/svg" viewBox="0 0 506.57 97.19"><defs><style>.cls-1,.cls-2{fill:#2f2f96;}.cls-1{fill-rule:evenodd;}</style></defs><title>자산 5</title><g id="레이어_2" data-name="레이어 2"><g id="레이어_1-2" data-name="레이어 1"><polygon class="cls-1" points="121.36 0 106.43 52.94 87.34 0 63.72 0 44.77 53.3 30.16 0 0 0 32.11 97.19 56.46 97.19 75.77 46.95 95.06 97.19 119.28 97.19 151.19 0 121.36 0"/><polygon class="cls-1" points="242.72 0 243 54.4 189.6 0 162.19 0 162.7 97.19 193.04 97.19 192.76 43.83 246.3 97.19 273.78 97.19 273.27 0 242.72 0"/><polygon class="cls-1" points="295.98 0 296.51 97.19 390.77 97.19 390.65 69.48 328.14 69.73 327.74 0 295.98 0"/><path class="cls-2" d="M393.48,15.13l2.23-11.82h3.42l-3.69,16.62H392l-2.7-11.12-2.71,11.12h-3.44L379.45,3.31h3.41l2.25,11.8,2.74-11.8h2.9Z"/><path class="cls-2" d="M404,8.92a4.1,4.1,0,0,1,3.3-1.57q4,0,4.07,4.67v7.91h-3.3V12.11a2.27,2.27,0,0,0-.46-1.57,1.92,1.92,0,0,0-1.51-.51,2.23,2.23,0,0,0-2.1,1.12v8.78h-3.3V2.4H404Z"/><path class="cls-2" d="M418.45,15.26l2.28-7.68h3.54l-5,14.26-.27.65a3.76,3.76,0,0,1-3.65,2.42,5.31,5.31,0,0,1-1.46-.21V22.2h.5a2.73,2.73,0,0,0,1.4-.29,1.87,1.87,0,0,0,.72-.94l.39-1L412.6,7.58h3.55Z"/><path class="cls-2" d="M439.3,19.93h-3.43L429.21,9V19.93h-3.43V3.31h3.43l6.67,11V3.31h3.42Z"/><path class="cls-2" d="M441.56,13.64a7.35,7.35,0,0,1,.7-3.28,5.23,5.23,0,0,1,2-2.22,5.92,5.92,0,0,1,3.09-.79,5.63,5.63,0,0,1,4.08,1.53A6.13,6.13,0,0,1,453.23,13l0,.85a6.46,6.46,0,0,1-1.58,4.56,6.16,6.16,0,0,1-8.52,0,6.56,6.56,0,0,1-1.59-4.65Zm3.3.23a4.63,4.63,0,0,0,.66,2.69,2.37,2.37,0,0,0,3.76,0,5,5,0,0,0,.68-2.94,4.54,4.54,0,0,0-.68-2.67,2.17,2.17,0,0,0-1.89-1,2.14,2.14,0,0,0-1.87.94A5.15,5.15,0,0,0,444.86,13.87Z"/><path class="cls-2" d="M459.23,4.54v3h2.11V10h-2.11v6.16a1.44,1.44,0,0,0,.27,1,1.3,1.3,0,0,0,1,.3,5.59,5.59,0,0,0,1-.08v2.5a7.06,7.06,0,0,1-2,.29c-2.31,0-3.49-1.16-3.54-3.5V10h-1.8V7.58h1.8v-3Z"/><path class="cls-2" d="M466.82,17.17h7.27v2.76H463.4V3.31h3.42Z"/><path class="cls-2" d="M475.81,4.38a1.64,1.64,0,0,1,.5-1.22,2.14,2.14,0,0,1,2.7,0,1.6,1.6,0,0,1,.5,1.22A1.6,1.6,0,0,1,479,5.61a1.85,1.85,0,0,1-1.34.48,1.88,1.88,0,0,1-1.34-.48A1.63,1.63,0,0,1,475.81,4.38Zm3.51,15.55H476V7.58h3.31Z"/><path class="cls-2" d="M485.07,7.58l.1,1.42a4.32,4.32,0,0,1,3.55-1.65,3.57,3.57,0,0,1,2.92,1.15,5.41,5.41,0,0,1,1,3.45v8h-3.3V12a2.19,2.19,0,0,0-.46-1.53,2.06,2.06,0,0,0-1.52-.47,2.28,2.28,0,0,0-2.09,1.19v8.71H482V7.58Z"/><path class="cls-2" d="M499.61,15l-1.19,1.19v3.77h-3.29V2.4h3.29v9.71l.64-.82,3.16-3.71h4l-4.46,5.14,4.85,7.21h-3.79Z"/></g></g></svg>