<?xml version="1.0" encoding="UTF-8"?>
<svg width="89px" height="22px" viewBox="0 0 89 22" version="1.1" xmlns="http://www.w3.org/2000/svg" xmlns:xlink="http://www.w3.org/1999/xlink">
    <!-- Generator: Sketch 59.1 (86144) - https://sketch.com -->
    <title>Group 4</title>
    <desc>Created with Sketch.</desc>
    <g id="Page-1" stroke="none" stroke-width="1" fill="none" fill-rule="evenodd">
        <g id="Artboard-Copy-7" transform="translate(-60.000000, -30.000000)" fill="#FFFFFF">
            <g id="Group-4" transform="translate(60.000000, 30.000000)">
                <polygon id="Fill-1" points="28.0936571 0 24.6382557 11.9832734 20.2195243 0 14.7497522 0 10.3652131 12.0653777 6.98116947 0 0 0 7.43359762 22 13.0708622 22 17.5396432 10.6275629 22.0069376 22 27.6134787 22 35 0"></polygon>
                <polygon id="Fill-2" points="55.7637061 0 55.8293739 12.3141637 43.3870563 0 37 0 37.1184983 22 44.1884008 22 44.1222393 9.92176259 56.5966501 22 63 22 62.8815017 0"></polygon>
                <polygon id="Fill-3" points="68 0 68.1168885 22 89 22 88.972239 15.7279227 75.1253305 15.7828237 75.03669 0"></polygon>
            </g>
        </g>
    </g>
</svg>